<?xml version="1.0" encoding="UTF-8" standalone="no"?>
<!-- Created with Inkscape (http://www.inkscape.org/) -->

<svg
   width="350"
   height="50"
   viewBox="0 0 92.604165 13.229167"
   version="1.1"
   id="svg1"
   inkscape:version="1.3 (0e150ed6c4, 2023-07-21)"
   sodipodi:docname="Menu-lescopainsduparc-contact.svg"
   xmlns:inkscape="http://www.inkscape.org/namespaces/inkscape"
   xmlns:sodipodi="http://sodipodi.sourceforge.net/DTD/sodipodi-0.dtd"
   xmlns="http://www.w3.org/2000/svg"
   xmlns:svg="http://www.w3.org/2000/svg">
  <sodipodi:namedview
     id="namedview1"
     pagecolor="#ffffff"
     bordercolor="#000000"
     borderopacity="0.25"
     inkscape:showpageshadow="2"
     inkscape:pageopacity="0.0"
     inkscape:pagecheckerboard="0"
     inkscape:deskcolor="#d1d1d1"
     inkscape:document-units="mm"
     inkscape:zoom="1.9300999"
     inkscape:cx="152.32372"
     inkscape:cy="156.98669"
     inkscape:window-width="1920"
     inkscape:window-height="972"
     inkscape:window-x="0"
     inkscape:window-y="40"
     inkscape:window-maximized="1"
     inkscape:current-layer="layer1" />
  <defs
     id="defs1" />
  <g
     inkscape:label="Calque 1"
     inkscape:groupmode="layer"
     id="layer1">
    <path
       d="m 31.045163,9.4272952 q 0.507365,0.09911 0.461241,0.416277 -0.02306,0.3171618 -0.438178,0.3964528 -0.415117,0.07929 -1.083916,0.158582 -0.668798,0.07929 -1.429845,0.138759 -0.761047,0.05947 -1.568218,0.07929 -0.807171,0 -1.522093,-0.09911 -1.614342,-0.198227 -2.167831,-0.8721978 -0.530426,-0.673972 -0.484302,-1.427233 0.06919,-0.7532623 0.553488,-1.466879 0.484303,-0.7334395 1.268412,-1.3677655 0.784108,-0.634326 1.70659,-1.1100705 2.006395,-1.0506025 3.482365,-1.0109571 0.576551,0.1387589 0.322869,0.5946806 -0.299807,0.7136168 -0.761047,0.5946806 -0.276745,-0.079291 -0.345931,-0.3171629 -1.153101,0.2180495 -2.652132,1.0902478 -2.352327,1.3677654 -2.652134,2.7553536 -0.161433,0.7334394 0.299807,1.1695384 0.46124,0.436099 1.314535,0.574858 0.853295,0.138758 1.844962,0.118936 1.844962,-0.03964 3.574614,-0.356808 z m 1.798827,-1.605637 q 0.138371,-0.3171629 0.322868,-0.7136167 0.138372,-0.4162765 0.368993,-0.7532621 0.530426,-0.892021 1.106977,-1.268652 l 0.06919,-0.1189362 q 1.222287,-0.9118436 2.421512,-0.6739714 0.553489,0.1189362 0.968605,0.4559219 0.415117,0.3171629 0.599613,0.7730848 0.46124,1.0704251 -0.322868,2.279609 -0.507365,0.8127307 -1.706591,1.3082977 -0.876357,0.376631 -2.237016,0.515389 -0.761047,0.09911 -1.314535,-0.535213 -0.553489,-0.634325 -0.276745,-1.268651 z m 3.87442,0.336986 q 0.530426,-0.3171633 0.876357,-0.7334397 0.34593,-0.4360991 0.34593,-1.1100705 0,-0.6739713 -0.415116,-1.0109571 -0.415117,-0.3369857 -1.014729,-0.257695 -0.09225,0.2378724 -0.392055,0.2973404 -0.876357,0.099113 -1.591279,1.0506025 -0.622675,0.8325528 -0.78411,1.6056377 -0.04612,0.1585817 0.02306,0.3171637 0.09225,0.138758 0.138372,0.29734 0.138372,0.03965 0.276744,0.118936 0.138372,0.05947 0.461241,0.07929 0.34593,0.01982 0.945543,-0.158581 0.622674,-0.178404 1.130039,-0.495568 z m 3.320926,1.427233 Q 39.73953,8.9713732 39.785654,8.0991752 39.854844,7.2071549 39.900964,6.7710559 39.947084,6.3349567 39.877904,6.057439 39.670346,5.958326 39.647283,5.7402761 39.601153,5.5222265 39.762593,5.423113 39.94709,5.324 39.970152,5.324 q 0.368992,-0.1585814 0.645737,0.1585815 0.34593,0.6541487 0.11531,2.2597864 -0.04613,0.3964533 -0.04613,0.7136163 1.037791,-1.367765 2.16783,-2.4183674 0.807171,-0.7334395 1.59128,-0.7730848 0.392066,-0.019822 0.784121,-0.079291 0.415116,-0.079291 0.737984,0.079291 1.383722,0.7136167 0.991667,2.3588998 -0.161434,0.7136164 -0.599612,1.3479414 -0.737985,1.0902478 -1.314536,1.1893608 -0.207558,0.03965 -0.415128,0.07929 -0.207558,0.05947 -0.368992,-0.01982 -0.138372,-0.07929 -0.184497,-0.21805 -0.11531,-0.3369858 0.299807,-0.4757438 0.415128,-0.138759 0.761058,-0.475745 0.368992,-0.356808 0.599613,-0.792907 0.253683,-0.4559213 0.34593,-0.911843 0.09225,-0.4757445 -0.02306,-0.8325529 -0.276745,-0.7929075 -1.522106,-0.4559219 -0.714922,0.1784043 -1.222287,0.6145033 -0.507365,0.4360992 -0.922481,0.9713118 -0.415117,0.5153897 -0.807172,1.0704247 -0.392053,0.535212 -0.876356,0.951488 -0.368993,0.178405 -0.668799,-0.07929 z m 9.524605,-3.5482608 q -0.415117,0.099113 -0.991667,0.2378723 -0.461241,0.079291 -0.576551,-0.257695 -0.11531,-0.3369857 0.276744,-0.4757446 0.438178,-0.1387587 1.47597,-0.3568083 0.11531,-0.7136168 0.392054,-1.5065243 0.299807,-0.7929074 0.438178,-1.3677654 -0.04612,-0.079291 0.02306,-0.2973403 0.06919,-0.2180496 0.11531,-0.3369858 0.06919,-0.1189361 0.207559,-0.1585814 0.138372,-0.059468 0.299806,-0.039645 0.34593,0.079291 0.34593,0.4162765 h 0.02306 l -0.04613,0.079291 q -0.138362,0.713616 -0.368982,1.4074101 -0.207558,0.6937941 -0.392054,1.3875882 l -0.06919,0.2378722 1.452908,-0.2378722 q 0.23062,-0.019823 0.368993,0.079291 0.138372,0.099113 0.161434,0.2378723 0.02306,0.1387588 -0.09225,0.2775176 -0.09225,0.1387588 -0.461241,0.1982268 -1.199225,0.198227 -1.614342,0.2775177 -0.253682,1.2091839 -0.57655,2.3787224 -0.299807,1.149715 -0.922481,2.2796088 -0.276744,0.317162 -0.599613,0.158581 -0.322868,-0.158581 -0.23062,-0.495568 0.553489,-1.0109558 0.830233,-2.0219128 0.299806,-1.0307794 0.530427,-2.1012045 z m 4.105064,1.8038645 q 0.184496,-0.3171629 0.438178,-0.5946806 0.276744,-0.2775176 0.945542,-0.8325528 0.691861,-0.5550353 1.24535,-0.8523757 0.576551,-0.2973402 0.853295,-0.3171629 0.276744,-0.019823 0.46124,0.079291 0.392055,0.2180495 0.230621,0.6541487 0.161434,-0.099113 0.299806,-0.1784042 0.138373,-0.099113 0.34593,-0.1189361 0.230621,-0.039645 0.392055,0.099113 0.161434,0.1189361 0.11531,0.3568083 -0.23062,0.7334395 -0.484302,1.3281201 -0.23062,0.5946806 -0.138373,0.9713125 0.09225,0.37663 0.668799,0.475744 0.576551,0.07929 2.006396,-0.198227 0.230621,-0.01982 0.368992,0.07929 0.138373,0.09911 0.161435,0.237873 0.02306,0.138758 -0.09225,0.277518 -0.09225,0.138758 -0.415116,0.218049 -0.830233,0.178404 -1.660465,0.178404 -0.807171,0.01982 -1.245349,-0.198227 -0.415117,-0.198226 -0.599614,-0.535213 -0.276743,-0.535211 0.06919,-1.6452823 -0.345931,0.2973403 -0.830234,0.7532623 -0.484302,0.455922 -0.69186,0.634326 -0.207558,0.158581 -0.392054,0.29734 -0.161435,0.118936 -0.576551,0.21805 -0.392055,0.09911 -0.784109,0.07929 -0.368993,-0.01982 -0.645736,-0.218051 -0.276745,-0.198227 -0.253683,-0.555034 0.02306,-0.376631 0.207558,-0.6937945 z M 56.828502,6.632297 Q 56.57482,6.612474 56.436447,6.4538928 55.859896,6.8503466 55.237222,7.3657365 54.614547,7.8613036 54.406989,8.4758072 55.32947,8.6938562 56.528696,7.266623 56.851564,6.8701693 57.197494,6.5530062 57.059122,6.5926512 56.828502,6.632297 Z M 64.25445,6.3547794 q -0.299806,0.1387588 -0.553489,0 -1.26841,0.4559218 -2.006396,1.4272335 -0.276744,0.3568083 -0.322868,0.7334403 0.46124,0.535211 2.121707,0.376629 0.668798,-0.07929 1.291473,-0.198226 0.622674,-0.138758 0.899419,-0.178403 0.276744,-0.03964 0.415116,0.05947 0.138373,0.07929 0.184496,0.198226 0.11531,0.297341 -0.276744,0.475745 -1.821899,0.396454 -2.51376,0.475745 -1.545157,0.178404 -2.513761,-0.356809 -0.853295,-0.51539 -0.392055,-1.5065235 0.415117,-0.8721983 1.522094,-1.6254604 1.106977,-0.7532622 1.983334,-0.7532622 0.23062,0.059468 0.34593,0.2180496 0.09225,0.2180495 0.02306,0.3568083 -0.04613,0.1189362 -0.207558,0.2973404 z m 3.113374,-0.317163 q -0.415117,0.099113 -0.991668,0.2378723 -0.46124,0.079291 -0.57655,-0.257695 -0.11531,-0.3369857 0.276744,-0.4757446 0.438178,-0.1387587 1.47597,-0.3568083 0.11531,-0.7136168 0.392054,-1.5065243 0.299807,-0.7929074 0.438178,-1.3677654 -0.04613,-0.079291 0.02306,-0.2973403 0.06919,-0.2180496 0.11531,-0.3369858 0.06919,-0.1189361 0.207558,-0.1585814 0.138373,-0.059468 0.299806,-0.039645 0.34593,0.079291 0.34593,0.4162765 h 0.02306 l -0.04613,0.079291 Q 69.212784,2.6875822 68.982165,3.3813763 68.774606,4.0751704 68.59011,4.7689645 l -0.06919,0.2378722 1.452907,-0.2378722 q 0.230621,-0.019823 0.368993,0.079291 0.138372,0.099113 0.161435,0.2378723 0.02306,0.1387588 -0.09225,0.2775176 -0.09225,0.1387588 -0.46124,0.1982268 -1.199225,0.198227 -1.614343,0.2775177 -0.253682,1.2091839 -0.576549,2.3787223 -0.299807,1.149715 -0.922482,2.2796088 -0.276744,0.317162 -0.599612,0.158581 -0.322869,-0.158581 -0.23062,-0.495568 0.553488,-1.0109558 0.830232,-2.0219128 0.299807,-1.0307793 0.530427,-2.1012044 z"
       id="text12"
       style="font-size:96px;font-family:Karumbi;-inkscape-font-specification:Karumbi;opacity:1;mix-blend-mode:normal;fill:#000000;stroke:#000000;stroke-width:0.289536;stroke-opacity:1"
       aria-label="Contact" />
  </g>
</svg>
