<?xml version="1.0" encoding="UTF-8" standalone="no"?>
<!-- Created with Inkscape (http://www.inkscape.org/) -->

<svg
   width="350"
   height="50"
   viewBox="0 0 92.604165 13.229167"
   version="1.1"
   id="svg1"
   inkscape:version="1.3 (0e150ed6c4, 2023-07-21)"
   sodipodi:docname="Menu-lescopainsduparc-évènements.svg"
   xmlns:inkscape="http://www.inkscape.org/namespaces/inkscape"
   xmlns:sodipodi="http://sodipodi.sourceforge.net/DTD/sodipodi-0.dtd"
   xmlns="http://www.w3.org/2000/svg"
   xmlns:svg="http://www.w3.org/2000/svg">
  <sodipodi:namedview
     id="namedview1"
     pagecolor="#ffffff"
     bordercolor="#000000"
     borderopacity="0.25"
     inkscape:showpageshadow="2"
     inkscape:pageopacity="0.0"
     inkscape:pagecheckerboard="0"
     inkscape:deskcolor="#d1d1d1"
     inkscape:document-units="mm"
     inkscape:zoom="1.9300999"
     inkscape:cx="152.32372"
     inkscape:cy="156.98669"
     inkscape:window-width="1920"
     inkscape:window-height="972"
     inkscape:window-x="0"
     inkscape:window-y="40"
     inkscape:window-maximized="1"
     inkscape:current-layer="layer1" />
  <defs
     id="defs1" />
  <g
     inkscape:label="Calque 1"
     inkscape:groupmode="layer"
     id="layer1">
    <path
       d="m 21.453751,9.5810939 q -1.302471,-0.017686 -2.646958,-0.035363 -1.323479,0 -2.604942,0.3182676 -0.462167,0.106089 -1.050381,0.4243575 -0.588212,0.318267 -0.924335,0.459721 -0.336121,0.159133 -0.714258,0.212178 -0.52519,-0.08841 -0.399144,-0.459721 0.105038,-0.371312 0.441159,-0.6895805 0.35713,-0.3182682 0.567205,-0.6895801 0.210076,-0.371312 0.546199,-0.9901661 0.357129,-0.6011724 0.630227,-1.2730711 0.735266,-1.5913388 0.861312,-2.5638234 -0.210076,-0.070726 -0.252091,-0.2652232 -0.04201,-0.194497 0.126045,-0.2829047 0.168062,-0.1060892 0.231084,-0.1237708 0.08403,-0.035363 0.168061,-0.070726 0.483174,-0.1591339 0.630228,0.2652231 v 0.1944971 q 0.44116,-0.070727 0.882319,-0.1414524 0.462167,-0.088408 0.924335,-0.1237708 1.071388,-0.1060892 1.743631,0.1414523 0.357129,0.2121785 0.147052,0.4950831 -0.189067,0.265223 -0.567205,0.1414521 -0.378137,-0.1414522 -0.777281,-0.1414522 -0.399144,-0.017682 -0.819297,0.053045 -0.399144,0.053045 -0.819295,0.1414522 -0.420152,0.088408 -0.819297,0.1414523 -0.126045,0.5658094 -0.546197,1.6090204 0.567205,-0.053044 1.239447,-0.088408 0.693251,-0.053045 1.029373,-0.1944969 0.357129,-0.1591339 0.504183,-0.1237708 0.105038,0.017681 0.189068,0.1237708 0.168061,0.2298601 -0.04201,0.4950832 -0.672243,0.3005862 -1.49154,0.3713124 -0.819296,0.053044 -1.554562,0.1237708 -0.06303,0 -0.189068,-0.035363 -0.168065,0.3536304 -0.357132,0.6895798 -0.168062,0.3359493 -0.336123,0.6895804 -0.16806,0.3359485 -0.336122,0.7072605 -0.16806,0.3713129 -0.315114,0.530447 -0.126045,0.159133 -0.126045,0.176814 0.882319,-0.4950822 1.344487,-0.6011716 1.365494,-0.3182673 2.730988,-0.3182673 1.386502,-0.017686 2.773003,0 0.357129,0.1060885 0.357129,0.371312 0,0.2652226 -0.378136,0.3359495 z m 0.73528,-2.9881804 q -0.126046,-0.3005863 0.04201,-0.424357 0.168061,-0.1414524 0.294106,-0.1414524 0.147053,0 0.315114,0.1060893 0.462168,0.4066755 0.567205,1.4322049 0.04201,0.3889939 0.08403,0.8133515 0.06302,0.4066754 0.252091,0.742624 0.399145,-0.2829048 0.630228,-0.6365346 0.252091,-0.3536315 0.483175,-0.7249439 0.252092,-0.3889939 0.567206,-0.7426248 0.336121,-0.3713124 0.945341,-0.6895801 0.357129,-0.1414524 0.52519,0.1060892 0.168061,0.2298601 -0.04201,0.4774017 -0.504183,0.2652231 -0.840304,0.6365355 -0.315114,0.3536308 -0.60922,0.7603061 -0.273098,0.4066754 -0.567206,0.7956687 -0.294106,0.3889941 -0.735265,0.7072619 -0.189068,0.08841 -0.399144,0.07073 Q 23.050343,9.7048636 22.840267,9.280507 22.651199,8.8561494 22.609182,8.3610667 q -0.021,-0.495083 -0.06302,-0.9724847 -0.021,-0.4950832 -0.357129,-0.7956694 z M 29.898837,3.6400961 Q 29.688761,3.3571914 29.646746,3.1273313 29.604736,2.8797898 29.709772,2.7737005 29.81481,2.6499297 29.961863,2.6145666 30.34,2.5438396 30.466046,2.9151529 q 0.16806,0.7249432 1.554562,1.4675679 0.357129,0.2121784 0.147054,0.4950831 Q 31.97859,5.1430271 31.579445,5.0015748 30.48705,4.453447 29.898837,3.6400961 Z m 2.28983,1.6443833 q 0.231083,0.1414523 0.189067,0.5127647 -0.02101,0.3536309 -0.378136,0.6718986 -0.336122,0.3182677 -0.819298,0.5127648 -0.672242,0.2652231 -2.037737,0.4243569 -1.134409,1.0785748 -0.567204,1.4852493 0.525189,0.4066754 2.331844,0.1944966 1.30247,-0.1414519 2.394866,-0.4420379 0.378137,-0.035363 0.483176,0.2475413 0.105037,0.2652235 -0.252092,0.4243576 Q 31.01224,9.9170425 29.310624,9.7932715 28.239237,9.7048645 27.882108,9.2805078 27.545986,8.8561503 27.69304,8.2726604 27.840093,7.6891692 28.365283,7.0703151 28.890472,6.4514612 29.562715,5.9740595 30.234959,5.496658 30.949217,5.2844794 q 0.714259,-0.22986 1.23945,0 z m -0.756274,0.618854 q -0.378138,0.070727 -1.23945,0.6542171 0.840305,-0.2121786 1.23945,-0.6542171 z m 2.520901,3.5893523 q -0.273098,-0.5481273 -0.231083,-1.326115 0.06303,-0.7956693 0.105038,-1.1846632 0.04201,-0.388994 -0.021,-0.6365356 -0.189068,-0.088408 -0.210076,-0.2829046 -0.04201,-0.1944971 0.105039,-0.2829047 0.16806,-0.088408 0.189068,-0.088408 0.336121,-0.1414522 0.588212,0.1414524 0.315115,0.5834909 0.105039,2.0156958 -0.04201,0.3536308 -0.04201,0.6365362 0.945341,-1.2200271 1.974714,-2.1571488 0.735266,-0.6542171 1.449525,-0.6895802 0.357129,-0.017681 0.714258,-0.070727 0.378138,-0.070727 0.672243,0.070727 1.260457,0.6365356 0.903328,2.1041036 -0.147054,0.636536 -0.546197,1.2023446 -0.672245,0.9724843 -1.197434,1.0608928 -0.189069,0.03536 -0.378138,0.07072 -0.189068,0.05304 -0.336121,-0.01769 Q 37.671654,9.9877605 37.629638,9.8639845 37.5246,9.5633981 37.902737,9.4396274 38.280873,9.3158568 38.595987,9.0152708 38.932109,8.6970026 39.142186,8.3080084 39.37327,7.9013331 39.4573,7.4946576 39.54133,7.0703006 39.4363,6.752033 39.184199,6.0447805 38.049787,6.3453667 37.398552,6.5045005 36.936385,6.8934944 36.474218,7.2824883 36.096081,7.75989 35.717944,8.2196104 35.360815,8.7146931 35.003685,9.1920944 34.562526,9.5634073 34.226404,9.7225414 33.953305,9.4926822 Z M 45.780571,5.2844794 q 0.231084,0.1414523 0.189068,0.5127647 -0.021,0.3536309 -0.378136,0.6718986 -0.336122,0.3182677 -0.819297,0.5127648 -0.672242,0.2652231 -2.037737,0.4243569 -1.134411,1.0785748 -0.567205,1.4852493 0.52519,0.4066754 2.331843,0.1944966 1.302471,-0.1414519 2.394868,-0.4420379 0.378136,-0.035363 0.483174,0.2475413 0.105038,0.2652235 -0.252091,0.4243576 -2.520913,0.6011712 -4.222529,0.4774002 -1.071388,-0.088407 -1.428517,-0.5127637 -0.336121,-0.4243575 -0.189068,-1.0078474 0.147054,-0.5834912 0.672243,-1.2023453 0.525191,-0.6188539 1.197434,-1.0962556 0.672243,-0.4774015 1.386502,-0.6895801 0.714258,-0.22986 1.239448,0 z m -0.756274,0.618854 q -0.378136,0.070727 -1.239447,0.6542171 0.840303,-0.2121786 1.239447,-0.6542171 z m 6.974515,1.3437972 -0.021,0.5658093 v 0.2829047 q 0.06303,-0.1060893 0.126046,-0.2121785 0.06303,-0.1237708 0.231084,-0.3005862 0.189068,-0.194497 0.672243,-0.6365356 0.483174,-0.4420385 1.071388,-0.848714 1.449524,-0.9901663 2.226805,-0.9017586 0.79829,0.088408 1.197433,0.424357 0.420153,0.3359493 0.567207,0.8133509 0.147052,0.4597201 0.04201,0.9901664 -0.105044,0.5304462 -0.39915,1.0078476 Q 57.040634,9.5457313 55.906224,9.7402279 55.486072,9.8109535 55.381034,9.510367 55.275996,9.209781 55.67514,9.0683291 56.494437,8.8738324 56.977612,8.0604814 57.418772,7.3178568 57.25071,6.6105951 56.998619,5.4436133 55.402041,6.186238 54.393676,6.6459581 53.511357,7.4946721 53.007175,7.9543922 52.77609,8.3610676 52.566015,8.767743 52.439969,8.9799209 52.124855,9.5280492 51.809741,9.7402279 51.55765,9.8463175 51.347574,9.7579136 51.158505,9.6871885 51.11649,9.4396463 51.011452,8.7147027 51.095485,7.9720782 q 0.08403,-0.7426248 0.04201,-1.467568 -0.462167,0.3889939 -0.672243,0.9017586 -0.210076,0.4950832 -0.336122,1.0078479 -0.126045,0.5127648 -0.273099,1.0078484 -0.147052,0.4950814 -0.483174,0.8663949 -0.462168,0.194498 -0.672244,-0.176815 -0.105034,-0.2829045 -0.12604,-0.8840775 -0.021,-0.601172 -0.06302,-1.2553893 -0.126045,-1.662065 -0.567206,-1.8742434 -0.147053,-0.088408 -0.420151,0.053045 -0.2731,0.1414523 -0.378137,0.1591339 -0.105038,0.017681 -0.252091,-0.053045 -0.126047,-0.035363 -0.189069,-0.1414524 -0.168061,-0.2475417 0.16806,-0.4597201 1.386502,-0.5658094 1.974715,0.2829047 0.252091,0.3889939 0.336122,0.9548032 0.105038,0.5658094 0.147053,1.1493003 0.189069,-0.5658093 0.44116,-1.0962557 0.273099,-0.5304462 0.672243,-0.8663956 0.399144,-0.3536308 0.672244,-0.4066754 0.273098,-0.053045 0.462166,0.053044 0.420153,0.2475416 0.420153,0.9371218 z M 63.742063,5.2844794 q 0.231083,0.1414523 0.189068,0.5127647 -0.02101,0.3536309 -0.378137,0.6718986 -0.336121,0.3182677 -0.819297,0.5127648 -0.672243,0.2652231 -2.037738,0.4243569 -1.13441,1.0785748 -0.567205,1.4852493 0.525191,0.4066754 2.331845,0.1944966 1.302471,-0.1414519 2.394866,-0.4420379 0.378137,-0.035363 0.483175,0.2475413 0.105038,0.2652235 -0.252091,0.4243576 -2.520912,0.6011712 -4.222528,0.4774002 -1.071388,-0.088407 -1.428518,-0.5127637 -0.336122,-0.4243575 -0.189068,-1.0078474 0.147054,-0.5834912 0.672244,-1.2023453 0.525189,-0.6188539 1.197433,-1.0962556 0.672243,-0.4774015 1.386502,-0.6895801 0.714259,-0.22986 1.239449,0 z m -0.756275,0.618854 q -0.378137,0.070727 -1.239448,0.6542171 0.840305,-0.2121786 1.239448,-0.6542171 z m 2.520902,3.5893523 q -0.273099,-0.5481273 -0.231083,-1.326115 0.06303,-0.7956693 0.105038,-1.1846632 0.04201,-0.388994 -0.02101,-0.6365356 -0.189069,-0.088408 -0.210075,-0.2829046 -0.04202,-0.1944971 0.105037,-0.2829047 0.16806,-0.088408 0.189068,-0.088408 0.336122,-0.1414522 0.588214,0.1414524 0.315114,0.5834909 0.105037,2.0156958 -0.04201,0.3536308 -0.04201,0.6365362 0.945343,-1.2200271 1.974715,-2.1571488 0.735267,-0.6542171 1.449525,-0.6895802 0.35713,-0.017681 0.714258,-0.070727 0.378137,-0.070727 0.672244,0.070727 1.260456,0.6365356 0.903327,2.1041036 -0.147054,0.636536 -0.546198,1.2023446 -0.672243,0.9724843 -1.197434,1.0608928 -0.189067,0.03536 -0.378136,0.07072 -0.189069,0.05304 -0.336122,-0.01769 -0.126045,-0.070721 -0.168061,-0.1944965 -0.105038,-0.3005864 0.2731,-0.4243571 0.378136,-0.1237706 0.69325,-0.4243566 Q 70.4855,8.6970026 70.695576,8.3080084 70.92666,7.9013331 71.01069,7.4946576 71.09472,7.0703006 70.98968,6.752033 70.737593,6.0447805 69.603182,6.3453667 68.951946,6.5045005 68.48978,6.8934944 68.027612,7.2824883 67.649475,7.75989 67.271338,8.2196104 66.914209,8.7146931 66.55708,9.1920944 66.115921,9.5634073 65.779798,9.7225414 65.506699,9.4926822 Z m 8.676138,-3.1649953 q -0.378138,0.088408 -0.903327,0.2121785 -0.420153,0.070727 -0.52519,-0.2298601 -0.105038,-0.3005862 0.252091,-0.424357 0.399145,-0.1237708 1.344487,-0.3182677 0.105037,-0.6365356 0.357129,-1.3437972 0.273099,-0.7072616 0.399144,-1.2200264 -0.04201,-0.070727 0.02101,-0.2652231 0.06301,-0.194497 0.105038,-0.3005862 0.06302,-0.1060893 0.189067,-0.1414524 0.126046,-0.053045 0.2731,-0.035363 0.315114,0.070727 0.315114,0.3713123 h 0.02101 l -0.04201,0.070727 q -0.126046,0.6365348 -0.336123,1.2553888 -0.189067,0.618854 -0.357128,1.2377079 l -0.06301,0.2121785 1.323478,-0.2121785 q 0.210076,-0.017681 0.336122,0.070727 0.126045,0.088408 0.147053,0.2121786 0.02101,0.1237708 -0.08403,0.2475416 -0.08403,0.1237708 -0.420152,0.1768154 Q 75.443305,6.0801498 75.065169,6.150876 74.834085,7.22945 74.539978,8.2726611 74.26688,9.2981898 73.699674,10.306038 73.447583,10.588943 73.153477,10.447491 72.859369,10.306038 72.9434,10.005452 73.447583,9.1036923 73.699674,8.2019348 73.972773,7.2824946 74.18285,6.3276914 Z m 7.583761,-0.194497 q 0.294106,0.2121785 0.210076,0.3889939 -0.168061,0.3359493 -0.52519,0.2652231 -0.420151,-0.1414523 -0.924334,0 -0.840304,0.2298601 -1.407509,0.5127648 0.399143,0.2121784 0.840304,0.3359493 0.462167,0.1237708 0.840303,0.3182677 0.88232,0.3889942 1.092396,1.060893 -0.04201,0.2121779 -0.147054,0.3182673 -0.903326,0.530446 -2.310835,0.7779875 -1.365495,0.247542 -2.499906,0.05305 -0.357129,-0.141451 -0.273098,-0.4066753 0.08403,-0.2475422 0.441159,-0.2829047 1.344486,0.1944966 3.06711,-0.2475413 0.504183,-0.1237716 0.79829,-0.3005861 Q 80.611171,8.7146975 80.170011,8.5732455 79.728851,8.4317936 79.3087,8.2726604 78.909556,8.0958446 78.594442,7.8659845 78.300334,7.6361245 78.216304,7.229449 q -0.021,-0.2475415 0.189069,-0.3889939 2.100761,-1.0962556 3.361216,-0.7072617 z"
       id="text11"
       style="font-size:25.4px;font-family:Karumbi;-inkscape-font-specification:Karumbi;stroke:#000000;stroke-width:0.260987"
       aria-label="Evènements" />
  </g>
</svg>
