<?xml version="1.0" encoding="UTF-8" standalone="no"?>
<!-- Created with Inkscape (http://www.inkscape.org/) -->

<svg
   width="350"
   height="50"
   viewBox="0 0 92.604165 13.229167"
   version="1.1"
   id="svg1"
   inkscape:version="1.3 (0e150ed6c4, 2023-07-21)"
   sodipodi:docname="Menu-lescopainsduparc-inscriptrion'.svg"
   xml:space="preserve"
   xmlns:inkscape="http://www.inkscape.org/namespaces/inkscape"
   xmlns:sodipodi="http://sodipodi.sourceforge.net/DTD/sodipodi-0.dtd"
   xmlns="http://www.w3.org/2000/svg"
   xmlns:svg="http://www.w3.org/2000/svg"><sodipodi:namedview
     id="namedview1"
     pagecolor="#ffffff"
     bordercolor="#000000"
     borderopacity="0.25"
     inkscape:showpageshadow="2"
     inkscape:pageopacity="0.0"
     inkscape:pagecheckerboard="0"
     inkscape:deskcolor="#d1d1d1"
     inkscape:document-units="mm"
     inkscape:zoom="1.9300999"
     inkscape:cx="201.02586"
     inkscape:cy="-1.5543237"
     inkscape:window-width="1920"
     inkscape:window-height="972"
     inkscape:window-x="0"
     inkscape:window-y="40"
     inkscape:window-maximized="1"
     inkscape:current-layer="layer1" /><defs
     id="defs1" /><g
     inkscape:label="Calque 1"
     inkscape:groupmode="layer"
     id="layer1"><path
       d="m 14.76525,8.9495929 q 0.443324,0.1198291 0.443324,0.419403 0,0.2995736 -0.469403,0.3794604 -0.417248,0 -0.808415,0.039947 -0.365091,0.039947 -0.782337,0.079883 -0.02609,0.079883 -0.13039,0.2396587 -0.26078,0.23966 -0.573715,0.179745 Q 12.157458,10.22778 12.079224,9.9881164 11.688057,10.067998 11.479433,9.7884 11.296887,9.5287696 11.609822,9.3490249 11.922756,9.1692802 12.418237,9.1093655 12.991951,7.7113548 12.835483,5.154992 12.783325,4.4759581 12.783325,3.896782 H 12.261764 Q 11.974911,3.8768108 11.844522,3.7370097 11.740214,3.6171802 11.740214,3.4773791 11.766291,3.137862 12.28785,3.097919 h 0.104304 q 1.721142,-0.1398012 2.11231,-0.1398012 0.443325,0.1198295 0.443325,0.3994318 -0.02609,0.3994316 -0.808416,0.4194032 -0.156466,0 -0.312934,0.019971 0,0.579176 0.02609,1.2382382 0,0.6590624 0.02609,1.3380962 -0.02609,1.5577837 -0.339013,2.6162779 0.391168,-0.039947 0.704103,-0.039947 z m 1.329967,0.2995738 Q 15.756203,8.6300476 15.80836,7.7512978 15.8866,6.8525766 15.938749,6.4132014 q 0.05216,-0.4393747 -0.02609,-0.7189769 -0.2347,-0.099857 -0.260777,-0.3195453 -0.05216,-0.2196875 0.130388,-0.3195454 0.208623,-0.099858 0.234701,-0.099858 0.417246,-0.1597728 0.730181,0.1597727 0.391169,0.6590622 0.130391,2.2767606 -0.05216,0.3994319 -0.05216,0.7189771 1.173505,-1.3780393 2.451322,-2.4365334 0.912727,-0.7389487 1.799376,-0.7788918 0.443325,-0.019972 0.886649,-0.079886 0.469402,-0.079886 0.834492,0.079886 1.564675,0.718977 1.121351,2.3766187 -0.182544,0.718977 -0.678025,1.3580677 -0.834494,1.0984377 -1.486443,1.1982955 -0.234699,0.039947 -0.469402,0.079883 -0.234694,0.05992 -0.417241,-0.019973 Q 20.710996,9.8083691 20.658842,9.6685641 20.528452,9.3290479 20.997853,9.1892467 21.467255,9.0494454 21.858424,8.7099284 22.275674,8.3504447 22.536453,7.91107 22.823311,7.4517235 22.927622,6.992377 23.031935,6.513059 22.901543,6.1535703 22.588606,5.3547071 21.1804,5.6942239 20.371984,5.8739682 19.798271,6.3133431 19.224558,6.752718 18.755154,7.2919508 18.285752,7.811212 17.842427,8.3704164 17.399104,8.9096489 16.851467,9.3290528 16.434221,9.5087964 16.095208,9.2491665 Z M 30.072971,5.4545654 q 0.365089,0.2396591 0.260779,0.4393751 -0.208624,0.3794602 -0.651947,0.2995736 -0.521559,-0.1597727 -1.147429,0 -1.043117,0.2596308 -1.747221,0.5791761 0.495482,0.2396589 1.043117,0.3794601 0.573716,0.1398011 1.043117,0.3594886 1.095271,0.4393747 1.356051,1.1982949 -0.05216,0.2396591 -0.182545,0.3594882 -1.121351,0.5991475 -2.86857,0.8787502 -1.695064,0.2796018 -3.10327,0.05992 Q 23.631728,9.8483199 23.736039,9.5487462 23.840342,9.2691435 24.283674,9.2292013 25.95266,9.4488882 28.091048,8.9495987 28.71692,8.8097921 29.082009,8.6100763 28.638686,8.370417 28.091048,8.2106443 27.543413,8.0508717 27.021856,7.8711274 26.526375,7.6714116 26.135206,7.411781 25.770116,7.1521503 25.665804,6.6928038 25.639727,6.4132014 25.900506,6.253429 28.508297,5.0151906 30.072971,5.4545654 Z m 5.84143,0.5392329 q -0.339014,0.1398012 -0.625871,0 -1.434285,0.4593466 -2.268778,1.4379541 -0.312934,0.3594887 -0.36509,0.7389487 0.521559,0.5392327 2.399167,0.3794601 0.75626,-0.079886 1.460363,-0.1997159 0.704105,-0.139801 1.017037,-0.1797442 0.312936,-0.039944 0.469404,0.059913 0.156467,0.079886 0.208623,0.1997159 0.130391,0.299574 -0.312934,0.4793181 -2.060157,0.3994322 -2.842493,0.4793189 -1.74722,0.1797439 -2.842491,-0.359488 -0.964882,-0.5192616 -0.443325,-1.5178409 0.469404,-0.8787497 1.72114,-1.63767 1.251742,-0.7589201 2.242702,-0.7589201 0.26078,0.059913 0.391168,0.2196873 0.104305,0.2196874 0.02608,0.3594885 -0.05215,0.1198294 -0.234699,0.2995738 z M 37.76591,5.4345939 q -0.156466,-0.3395169 0.05215,-0.479318 0.208624,-0.1597727 0.365093,-0.1597727 0.182545,0 0.391166,0.1198295 0.547637,0.5192612 0.52156,1.158352 -0.02608,0.6390907 -0.07822,1.0185509 -0.02609,0.37946 -0.05216,0.5192612 0,0.1198295 -0.02609,0.2196873 l -0.07823,0.6590623 q 1.043117,-1.1583519 2.633869,-1.8573572 1.590753,-0.6990057 3.572674,-1.2781815 0.469402,-0.039944 0.599791,0.2796021 0.13039,0.2995737 -0.312934,0.479318 -2.73818,0.7988636 -3.88561,1.4579257 -1.121349,0.6590624 -1.773296,1.3780394 -0.651948,0.6990055 -1.043117,1.6776131 -0.130391,0.239659 -0.495481,0.319544 h -0.05215 q -0.469404,-0.05991 -0.547637,-0.419403 0.02609,-0.499288 0.156469,-1.2781803 0.130395,-0.7788918 0.234706,-1.5378121 0.260778,-1.877329 -0.182546,-2.2767607 z m 8.344915,-0.3794601 q 0.234701,-0.3395168 0.625868,-0.2396591 0.417247,0.099857 0.365093,0.4593464 -0.39117,1.0784657 -0.678027,2.1569313 -0.26078,1.058494 -0.651948,2.1369592 -0.208623,0.3794606 -0.651947,0.2796025 -0.443325,-0.099858 -0.312935,-0.5192607 0.130388,-0.3994317 0.260778,-0.7988638 0.156468,-0.4194033 0.286858,-0.818835 v -0.019972 q 0.208623,-0.6590619 0.339012,-1.3181244 0.156467,-0.6790339 0.417248,-1.3181244 z m 1.35605,-2.8559365 q 0.443325,0.1198294 0.443325,0.4194032 0,0.2995738 -0.469403,0.3794601 H 47.336493 Q 47.049632,2.9780898 46.919242,2.8582596 46.814925,2.73843 46.814925,2.5786573 q 0.02608,-0.3395169 0.547637,-0.37946 z m 2.425238,4.8131518 -0.156466,0.1398012 q -0.417249,0.1597726 -0.704105,-0.039944 -0.260778,-0.2196874 -0.05215,-0.5392328 0.86057,-0.8388065 1.434285,-1.0784654 0.182545,-0.4992898 0.339011,-0.9786077 0.182548,-0.4793182 0.312936,-0.7988635 0.130389,-0.3395168 0.234702,-0.8188351 0.07823,-0.4593464 0.312933,-0.9786075 0.495481,-1.29815308 1.069195,-1.43795408 0.312935,-0.0399432 0.573714,0.1997158 l 0.156468,0.29957382 q 0.104303,0.25963066 -0.05216,0.41940316 -0.156467,0.1398011 -0.417244,0.1597728 -0.52156,1.2382382 -1.303897,3.6548 0.547636,-0.019971 1.251739,0 0.730182,0.019971 1.38213,0.3195455 0.651947,0.279602 1.017039,0.6990052 0.36509,0.4194034 0.339012,0.918693 0,0.4992897 -0.599792,0.8987215 -0.573714,0.3994317 -1.329974,0.5991475 -0.756257,0.1997157 -1.590751,0.3994317 -0.834493,0.1797446 -1.981919,0 -1.043118,2.2967318 -2.347012,3.7746298 -0.286859,0.339514 -0.730184,0.119829 -0.39117,-0.199716 -0.130389,-0.579177 1.721143,-1.917271 2.972881,-5.3523837 z M 51.352477,6.0337414 Q 50.987385,7.0522924 50.465828,8.2905307 51.639335,8.4103602 52.499903,8.1707011 54.038501,7.7313263 54.612215,7.0522924 54.351436,6.3932301 53.308319,6.1136278 52.317358,5.8340256 51.352477,6.0337414 Z M 58.419581,5.674253 q -0.469402,0.099857 -1.12135,0.2396589 -0.521558,0.079886 -0.651948,-0.2596306 -0.13039,-0.3395169 0.312936,-0.4793179 0.495478,-0.1398012 1.668985,-0.3594887 0.130388,-0.718977 0.443324,-1.5178403 0.339012,-0.7988635 0.49548,-1.3780394 -0.05216,-0.079886 0.02609,-0.2995738 0.07824,-0.2196875 0.130389,-0.3395169 0.07824,-0.1198296 0.234704,-0.1597728 0.156466,-0.059913 0.339011,-0.039944 0.391169,0.079886 0.391169,0.4194032 h 0.02609 l -0.05215,0.079886 Q 60.505836,2.299054 60.245055,2.9980596 60.010353,3.6970651 59.801732,4.3960705 l -0.07824,0.2396589 1.64291,-0.2396589 q 0.260779,-0.019971 0.417245,0.079886 0.156469,0.099857 0.182545,0.2396591 0.02608,0.139801 -0.104304,0.279602 -0.104315,0.1398009 -0.52157,0.1997156 Q 59.984262,5.3946496 59.51486,5.474536 59.227996,6.6928032 58.862905,7.8711267 58.523893,9.029479 57.81979,10.167859 57.506854,10.487405 57.141764,10.327632 56.776673,10.167859 56.880984,9.8283425 57.506854,8.809791 57.81979,7.7912405 58.158802,6.7527179 58.419581,5.674253 Z m 5.789315,-0.6191192 q 0.234701,-0.3395168 0.62587,-0.2396591 0.417245,0.099857 0.365089,0.4593464 Q 64.808688,6.3532868 64.52183,7.4317524 64.261051,8.4902464 63.869884,9.5687116 63.66126,9.9481722 63.217936,9.8483141 62.774611,9.7484561 62.905,9.3290534 63.03539,8.9296217 63.165781,8.5301896 63.322248,8.1107863 63.452638,7.7113546 V 7.6913822 Q 63.66126,7.0323201 63.79165,6.3732577 63.948117,5.6942238 64.208896,5.0551338 Z m 1.356052,-2.8559365 q 0.443325,0.1198294 0.443325,0.4194032 0,0.2995738 -0.469403,0.3794601 H 65.434566 Q 65.147705,2.9780893 65.017315,2.8582596 64.913001,2.73843 64.913001,2.5786573 q 0.02607,-0.3395169 0.547636,-0.37946 z m 1.017034,5.2724983 q 0.156466,-0.3195453 0.36509,-0.718977 0.156467,-0.4194034 0.417246,-0.7589203 0.599792,-0.8987213 1.25174,-1.2781813 l 0.07824,-0.1198296 q 1.382133,-0.918693 2.738182,-0.679034 0.625871,0.1198295 1.095273,0.4593466 0.469401,0.3195452 0.678026,0.7788917 0.521558,1.0784655 -0.365091,2.2967324 -0.573719,0.818835 -1.929769,1.3181242 Q 69.919954,9.1493088 68.38136,9.28911 67.520789,9.3889681 66.894917,8.7498771 66.269042,8.1107863 66.581978,7.4716956 Z m 4.381087,0.339517 q 0.599791,-0.3195454 0.990961,-0.7389487 0.391168,-0.4393747 0.391168,-1.1184087 0,-0.6790341 -0.469402,-1.0185509 -0.469402,-0.3395169 -1.147428,-0.2596307 -0.104303,0.2396591 -0.443323,0.2995739 -0.990961,0.099857 -1.799377,1.0584939 -0.704104,0.8388067 -0.886648,1.6176985 -0.05216,0.1597727 0.02608,0.3195453 0.104304,0.1398011 0.156467,0.2995739 0.156469,0.039944 0.312935,0.1198295 0.15647,0.059913 0.52156,0.079886 0.391168,0.019971 1.069194,-0.1597728 0.704103,-0.1797443 1.277817,-0.4992895 z m 3.755209,1.4379541 q -0.339012,-0.6191191 -0.286857,-1.4978689 0.07824,-0.8987212 0.130388,-1.3380964 0.05216,-0.4393747 -0.02608,-0.7189769 -0.234702,-0.099857 -0.260781,-0.3195453 -0.05216,-0.2196875 0.13039,-0.3195454 0.208624,-0.099858 0.234703,-0.099858 0.417245,-0.1597728 0.730181,0.1597727 0.391168,0.6590622 0.130389,2.2767606 -0.05216,0.3994319 -0.05216,0.7189771 1.173505,-1.3780393 2.451323,-2.4365334 0.912727,-0.7389487 1.799376,-0.7788918 0.443324,-0.019972 0.886648,-0.079886 0.469403,-0.079886 0.834493,0.079886 1.564675,0.718977 1.121351,2.3766187 -0.182546,0.718977 -0.678027,1.3580677 -0.834492,1.0984377 -1.486439,1.1982955 -0.234702,0.039947 -0.469405,0.079883 -0.2347,0.05992 -0.417245,-0.019973 Q 79.334055,9.8083701 79.281899,9.6685651 79.15151,9.3290489 79.620912,9.1892477 80.090313,9.0494464 80.481483,8.7099294 80.89873,8.3504408 81.15951,7.9110659 81.446365,7.4517196 81.550678,6.992373 81.654984,6.513055 81.524599,6.1535665 81.211665,5.3547031 79.803458,5.6942201 78.995043,5.8739643 78.42133,6.3133392 77.847617,6.752714 77.378214,7.2919468 76.908809,7.8112081 76.465487,8.3704123 76.022163,8.9096449 75.474526,9.3290489 75.057279,9.5087925 74.718266,9.2491656 Z"
       id="text4"
       style="font-size:20.5084px;font-family:Karumbi;-inkscape-font-specification:Karumbi;fill:#ff6600;stroke:#060606;stroke-width:0.30904"
       aria-label="Inscription" /></g></svg>
