<?xml version="1.0" encoding="UTF-8" standalone="no"?>
<!-- Created with Inkscape (http://www.inkscape.org/) -->

<svg
   width="350"
   height="50"
   viewBox="0 0 92.604165 13.229167"
   version="1.1"
   id="svg1"
   inkscape:version="1.3 (0e150ed6c4, 2023-07-21)"
   sodipodi:docname="Menu-lescopainsduparc-facebook'.svg"
   xml:space="preserve"
   xmlns:inkscape="http://www.inkscape.org/namespaces/inkscape"
   xmlns:sodipodi="http://sodipodi.sourceforge.net/DTD/sodipodi-0.dtd"
   xmlns="http://www.w3.org/2000/svg"
   xmlns:svg="http://www.w3.org/2000/svg"><sodipodi:namedview
     id="namedview1"
     pagecolor="#ffffff"
     bordercolor="#000000"
     borderopacity="0.25"
     inkscape:showpageshadow="2"
     inkscape:pageopacity="0.0"
     inkscape:pagecheckerboard="0"
     inkscape:deskcolor="#d1d1d1"
     inkscape:document-units="mm"
     inkscape:zoom="1.9300999"
     inkscape:cx="200.76681"
     inkscape:cy="-1.5543237"
     inkscape:window-width="1920"
     inkscape:window-height="1052"
     inkscape:window-x="1920"
     inkscape:window-y="0"
     inkscape:window-maximized="1"
     inkscape:current-layer="layer1" /><defs
     id="defs1" /><g
     inkscape:label="Calque 1"
     inkscape:groupmode="layer"
     id="layer1"><g
       id="g4"
       style="fill:#ff6600"><path
         d="m 27.790698,9.5950767 q 0.2032,-0.4064 0.4826,-0.762 0.3048,-0.3556 1.0414,-1.0668 0.762,-0.7112 1.3716,-1.0922 0.635,-0.381 0.9398,-0.4064 0.3048,-0.0254 0.508,0.1016 0.4318,0.2794 0.254,0.8382 0.1778,-0.127 0.3302,-0.2286 0.1524,-0.127 0.381,-0.1524 0.254,-0.0508 0.4318,0.127 0.1778,0.1524 0.127,0.4572 -0.254,0.9398 -0.5334,1.7018 -0.254,0.762 -0.1524,1.2446003 0.1016,0.4826 0.7366,0.6096 0.635,0.1016 2.2098,-0.254 0.254,-0.0254 0.4064,0.1016 0.1524,0.127 0.1778,0.3048 0.0254,0.1778 -0.1016,0.3556 -0.1016,0.1778 -0.4572,0.2794 -0.9144,0.2286 -1.8288,0.2286 -0.889,0.0254 -1.3716,-0.254 -0.4572,-0.254 -0.6604,-0.6858 -0.3048,-0.6858 0.0762,-2.1082003 -0.381,0.381 -0.9144,0.9652 -0.5334,0.5842003 -0.762,0.8128003 -0.2286,0.2032 -0.4318,0.381 -0.1778,0.1524 -0.635,0.2794 -0.4318,0.127 -0.8636,0.1016 -0.4064,-0.0254 -0.7112,-0.2794 -0.3048,-0.254 -0.2794,-0.7112 0.0254,-0.4826 0.2286,-0.8890003 z m 3.4798,-1.5494 q -0.2794,-0.0254 -0.4318,-0.2286 -0.635,0.508 -1.3208,1.1684 -0.6858,0.635 -0.9144,1.4224003 1.016,0.2794 2.3368,-1.5494003 0.3556,-0.508 0.7366,-0.9144 -0.1524,0.0508 -0.4064,0.1016 z m 8.178781,-0.3556 q -0.3302,0.1778 -0.6096,0 -1.397,0.5842 -2.2098,1.8288 -0.3048,0.4572 -0.3556,0.9398003 0.508,0.6858 2.3368,0.4826 0.7366,-0.1016 1.4224,-0.254 0.6858,-0.1778 0.9906,-0.2286 0.3048,-0.0508 0.4572,0.0762 0.1524,0.1016 0.2032,0.254 0.127,0.381 -0.3048,0.6096 -2.0066,0.508 -2.7686,0.6096 -1.7018,0.2286 -2.7686,-0.4572 -0.9398,-0.6604 -0.4318,-1.9304003 0.4572,-1.1176 1.6764,-2.0828 1.2192,-0.9652 2.1844,-0.9652 0.254,0.0762 0.381,0.2794 0.1016,0.2794 0.0254,0.4572 -0.0508,0.1524 -0.2286,0.381 z m 7.23898,-1.905 q 0.2794,0.2032 0.2286,0.7366 -0.0254,0.508 -0.4572,0.9652 -0.4064,0.4572 -0.9906,0.7366 -0.8128,0.381 -2.4638,0.6096 -1.3716,1.5494003 -0.6858,2.1336003 0.635,0.5842 2.8194,0.2794 1.5748,-0.2032 2.8956,-0.635 0.4572,-0.0508 0.5842,0.3556 0.127,0.381 -0.3048,0.6096 -3.048,0.8636 -5.1054,0.6858 -1.2954,-0.127 -1.7272,-0.7366 -0.4064,-0.6096 -0.2286,-1.4478 0.1778,-0.8382003 0.8128,-1.7272003 0.635,-0.889 1.4478,-1.5748 0.8128,-0.6858 1.6764,-0.9906 0.8636,-0.3302 1.4986,0 z m -0.9144,0.889 q -0.4572,0.1016 -1.4986,0.9398 1.016,-0.3048 1.4986,-0.9398 z m 6.934189,-3.9369999 q 0.0508,-0.254 0.2286,-0.3556 0.1778,-0.127 0.3556,-0.1016 0.1778,0.0254 0.3048,0.1778 0.127,0.1524 0.1016,0.4064 -0.2286,2.0319999 -1.778,4.2163999 0.1524,-0.0508 0.3048,-0.1016 1.1684,-0.4572 1.8034,-0.2286 0.635,0.2032 0.8382,0.6858 0.2032,0.4572 0.1016,1.1176 -0.1016,0.635 -0.4318,1.27 -0.762,1.4986003 -2.0066,1.9304003 -1.0668,0.381 -1.7272,0.381 -0.6604,0 -1.143,-0.2286 -0.508,-0.2032 -0.7874,-0.5588 -0.9144,-1.016 0.3048,-1.8796003 0.127,-0.1016 0.254,-0.2032 -0.2794,-0.2794 -0.0508,-0.6858 1.5748,-1.778 2.0828,-2.5908 1.0668,-1.6764 1.2446,-3.2511999 z m 1.2954,5.9181999 q 0.1016,-0.4318 0,-0.6604 -0.0762,-0.2286 -0.5334,-0.2286 -0.4318,0 -0.8636,0.1524 -0.4064,0.1524 -0.762,0.381 -0.3556,0.2286 -0.6858,0.4826 -0.3048,0.254 -0.6096,0.4318 0.1016,0.2794 -0.127,0.5588 -0.8382,0.4826003 -0.7874,0.9144003 0,0.1778 0.4826,0.3556 0.4826,0.2032 1.1938,0.0508 1.2446,-0.254 2.2098,-1.5494003 0.381,-0.4572 0.4826,-0.889 z m 2.463779,0.9144 q 0.1524,-0.4064 0.3556,-0.9144 0.1524,-0.5334 0.4064,-0.9652 0.5842,-1.143 1.2192,-1.6256 l 0.0762,-0.1524 q 1.3462,-1.1684 2.667,-0.8636 0.6096,0.1524 1.0668,0.5842 0.4572,0.4064 0.6604,0.9906 0.508,1.3716 -0.3556,2.921 -0.5588,1.0414003 -1.8796,1.6764003 -0.9652,0.4826 -2.4638,0.6604 -0.8382,0.127 -1.4478,-0.6858 -0.6096,-0.8128 -0.3048,-1.6256003 z m 4.2672,0.4318003 q 0.5842,-0.4064003 0.9652,-0.9398003 0.381,-0.5588 0.381,-1.4224 0,-0.8636 -0.4572,-1.2954 -0.4572,-0.4318 -1.1176,-0.3302 -0.1016,0.3048 -0.4318,0.381 -0.9652,0.127 -1.7526,1.3462 -0.6858,1.0668 -0.8636,2.0574 -0.0508,0.2032003 0.0254,0.4064003 0.1016,0.1778 0.1524,0.381 0.1524,0.0508 0.3048,0.1524 0.1524,0.0762 0.508,0.1016 0.381,0.0254 1.0414,-0.2032 0.6858,-0.2286 1.2446,-0.635 z m 3.505194,-0.4318003 q 0.1524,-0.4064 0.3556,-0.9144 0.1524,-0.5334 0.4064,-0.9652 0.5842,-1.143 1.2192,-1.6256 l 0.0762,-0.1524 q 1.3462,-1.1684 2.667,-0.8636 0.6096,0.1524 1.0668,0.5842 0.4572,0.4064 0.6604,0.9906 0.508,1.3716 -0.3556,2.921 -0.5588,1.0414003 -1.8796,1.6764003 -0.9652,0.4826 -2.4638,0.6604 -0.8382,0.127 -1.4478,-0.6858 -0.6096,-0.8128 -0.3048,-1.6256003 z m 4.2672,0.4318003 q 0.5842,-0.4064003 0.9652,-0.9398003 0.381,-0.5588 0.381,-1.4224 0,-0.8636 -0.4572,-1.2954 -0.4572,-0.4318 -1.1176,-0.3302 -0.1016,0.3048 -0.4318,0.381 -0.9652,0.127 -1.7526,1.3462 -0.6858,1.0668 -0.8636,2.0574 -0.0508,0.2032003 0.0254,0.4064003 0.1016,0.1778 0.1524,0.381 0.1524,0.0508 0.3048,0.1524 0.1524,0.0762 0.508,0.1016 0.381,0.0254 1.0414,-0.2032 0.6858,-0.2286 1.2446,-0.635 z m 8.102592,-8.1534002 q 0,0.5334 -0.1778,1.1938 -0.1016,0.254 -0.3556,0.3556 -0.6604,2.0065999 -1.6764,4.8513999 -0.3302,0.8382 -0.6858,1.651 -0.3302,0.8128003 -0.5842,1.6764003 0.3048,0 0.4064,0.2794 0.1016,0.3048 -0.1016,0.6096 -0.1524,0.1016 -0.3048,0.2286 -0.1524,0.127 -0.3048,0.2286 -0.4064,0.2286 -0.635,0.0254 -0.2286,-0.2032 -0.254,-0.3048 -0.0254,-0.0762 -0.0762,-0.2286 0.4064,-1.7526 1.0922,-3.4036003 0.7112,-1.651 1.0414,-2.6162 0.3556,-0.9652 0.508,-1.524 0.1524,-0.5842 0.3556,-1.1937999 0.4572,-1.524 0.8636,-2.0828 0.2794,-0.2032 0.5334,-0.1524 0.254,0.0508 0.3556,0.4064 z m 0.8128,6.0959999 q -0.3048,0.1524 -0.5334,0.0508 -0.2286,-0.127 -0.2794,-0.381 -0.4318,0.1016 -0.8128,0.4064 0.4572,0.7366 2.0066,1.651 0.381,0.2286 0.635,0.4318003 0.2794,0.1778 0.3048,0.381 0.0508,0.2032 -0.0254,0.3556 -0.2286,0.381 -0.7366,0.1778 -0.4318,-0.3302 -0.9144,-0.635 -0.4826,-0.3302 -0.9398,-0.6604003 -1.0922,-0.762 -1.4478,-1.6764 -0.0254,-0.2032 0.0762,-0.4826 0.4318,-0.508 1.2192,-0.8128 0.8128,-0.3048 1.4732,-0.3048 0.3302,0.1016 0.4318,0.4572 0.0508,0.3556 -0.1016,0.5588 -0.1524,0.2032 -0.3556,0.4826 z"
         id="text4"
         style="font-size:25.4px;font-family:Karumbi;-inkscape-font-specification:Karumbi;fill:#ff6600;stroke:#f1f5ff;stroke-width:0.343958"
         aria-label="acebook" /><g
         id="g1"
         transform="matrix(0.21516012,0,0,0.18245934,12.403795,-0.72365615)"
         style="fill:#ff6600"><path
           style="fill:#ff6600;fill-opacity:1"
           d="m 15.885585,68.179611 c -0.04388,-0.05595 -0.04263,-0.0572 0.01332,-0.01332 0.03396,0.02663 0.06174,0.05441 0.06174,0.06174 0,0.02904 -0.02897,0.01035 -0.07505,-0.04842 z m 49.18172,-0.339639 c 0,-0.0073 0.02778,-0.03511 0.06174,-0.06174 0.05595,-0.04388 0.0572,-0.04263 0.01332,0.01332 -0.04609,0.05876 -0.07505,0.07745 -0.07505,0.04842 z m -49.710887,-0.15425 c -0.04388,-0.05595 -0.04263,-0.0572 0.01332,-0.01332 0.03395,0.02663 0.06174,0.05441 0.06174,0.06174 0,0.02904 -0.02897,0.01035 -0.07506,-0.04842 z m -1.215935,-1.217083 -0.0672,-0.07937 0.07938,0.0672 c 0.07459,0.06315 0.09544,0.09155 0.0672,0.09155 -0.0067,0 -0.04241,-0.03572 -0.07938,-0.07937 z m 52.373211,-0.07506 c 0,-0.0073 0.02778,-0.03511 0.06174,-0.06174 0.05595,-0.04388 0.0572,-0.04263 0.01332,0.01332 -0.04609,0.05876 -0.07506,0.07745 -0.07506,0.04842 z m -52.885887,-0.47175 c -0.04388,-0.05595 -0.04263,-0.0572 0.01332,-0.01332 0.05876,0.04609 0.07745,0.07506 0.04842,0.07506 -0.0073,0 -0.03511,-0.02778 -0.06174,-0.06174 z M 4.2512033,44.090769 c 0.00169,-0.0411 0.010052,-0.04946 0.021314,-0.02131 0.010191,0.02547 0.00894,0.05589 -0.00279,0.06761 -0.011723,0.01172 -0.02006,-0.0091 -0.018529,-0.0463 z M 76.358978,43.632158 c 0.0017,-0.0411 0.01005,-0.04946 0.02131,-0.02131 0.01019,0.02547 0.0089,0.05589 -0.0028,0.06762 -0.01172,0.01172 -0.02006,-0.0091 -0.01853,-0.0463 z M 4.2159255,43.526325 c 0.00169,-0.0411 0.010052,-0.04946 0.021314,-0.02131 0.010191,0.02547 0.00894,0.05589 -0.00279,0.06762 -0.011722,0.01172 -0.02006,-0.0091 -0.018529,-0.0463 z m 72.1824225,-0.63206 c 7.19e-4,-0.05821 0.0086,-0.07775 0.01757,-0.04343 0.0089,0.03432 0.0084,0.08195 -0.0013,0.105833 -0.0097,0.02388 -0.01698,-0.0042 -0.01626,-0.06241 z M 4.18474,42.717876 c 7.19e-4,-0.05821 0.00863,-0.07775 0.01757,-0.04343 0.00894,0.03432 0.00836,0.08195 -0.00131,0.105833 -0.00966,0.02388 -0.016981,-0.0042 -0.016263,-0.06241 z m 0.00131,-2.345972 c 0,-0.06791 0.00726,-0.09569 0.016133,-0.06174 0.00887,0.03395 0.00887,0.08952 0,0.123472 -0.00887,0.03396 -0.016133,0.0062 -0.016133,-0.06174 z m 72.212301,-0.15875 c 7.19e-4,-0.05821 0.0086,-0.07775 0.01757,-0.04343 0.0089,0.03432 0.0084,0.08195 -0.0013,0.105833 -0.0097,0.02388 -0.01698,-0.0042 -0.01626,-0.06241 z M 4.2159255,39.539936 c 0.00169,-0.0411 0.010052,-0.04946 0.021314,-0.02131 0.010191,0.02547 0.00894,0.05589 -0.00279,0.06762 -0.011722,0.01172 -0.02006,-0.0091 -0.018529,-0.0463 z M 76.358978,39.434103 c 0.0017,-0.0411 0.01005,-0.04946 0.02131,-0.02131 0.01019,0.02547 0.0089,0.05589 -0.0028,0.06762 -0.01172,0.01172 -0.02006,-0.0091 -0.01853,-0.0463 z M 4.2512033,38.975492 c 0.00169,-0.0411 0.010052,-0.04946 0.021314,-0.02131 0.010191,0.02547 0.00894,0.05589 -0.00279,0.06762 -0.011723,0.01172 -0.02006,-0.0091 -0.018529,-0.0463 z m 72.0724977,-0.07056 c 0.0017,-0.0411 0.01005,-0.04946 0.02131,-0.02131 0.01019,0.02547 0.0089,0.05589 -0.0028,0.06761 -0.01172,0.01172 -0.02006,-0.0091 -0.01853,-0.0463 z M 4.2864811,38.516881 c 0.00169,-0.0411 0.010052,-0.04946 0.021314,-0.02131 0.010191,0.02547 0.00894,0.05589 -0.00279,0.06762 -0.011723,0.01172 -0.02006,-0.0091 -0.018529,-0.0463 z M 66.826694,17.026835 c -0.04388,-0.05595 -0.04263,-0.0572 0.01332,-0.01332 0.05876,0.04609 0.07745,0.07506 0.04842,0.07506 -0.0073,0 -0.03511,-0.02778 -0.06174,-0.06174 z m -0.702955,-0.740833 -0.121573,-0.132292 0.132291,0.121573 c 0.123135,0.113158 0.148512,0.143011 0.121574,0.143011 -0.0059,0 -0.06543,-0.05953 -0.132292,-0.132292 z M 14.724443,16.021419 c 0.14619,-0.155759 0.177864,-0.183766 0.177864,-0.157276 0,0.0057 -0.07541,0.08107 -0.16757,0.167569 l -0.167569,0.157276 z m 50.817452,-0.3175 -0.139451,-0.149931 0.14993,0.139451 c 0.08246,0.0767 0.149931,0.144167 0.149931,0.149931 0,0.02669 -0.03072,-1.8e-5 -0.16041,-0.139451 z M 64.81586,15.016002 c -0.04388,-0.05595 -0.04263,-0.0572 0.01332,-0.01332 0.05876,0.04609 0.07745,0.07506 0.04842,0.07506 -0.0073,0 -0.03511,-0.02778 -0.06174,-0.06174 z M 37.790969,5.4933619 c 0.02547,-0.010191 0.05589,-0.00894 0.06762,0.00279 0.01172,0.011723 -0.0091,0.02006 -0.0463,0.018529 -0.0411,-0.00169 -0.04946,-0.010052 -0.02131,-0.021314 z m 4.974166,0 c 0.02547,-0.010191 0.05589,-0.00894 0.06762,0.00279 0.01172,0.011723 -0.0091,0.02006 -0.0463,0.018529 -0.0411,-0.00169 -0.04946,-0.010052 -0.02131,-0.021314 z m -4.374444,-0.035278 c 0.02547,-0.010191 0.05589,-0.00894 0.06762,0.00279 0.01172,0.011722 -0.0091,0.02006 -0.0463,0.018529 -0.0411,-0.00169 -0.04946,-0.010052 -0.02131,-0.021314 z m 3.772517,7.35e-4 c 0.02425,-0.00979 0.06394,-0.00979 0.0882,0 0.02425,0.00979 0.0044,0.017794 -0.0441,0.017794 -0.04851,0 -0.06835,-0.00801 -0.0441,-0.017794 z m -2.892366,-0.036865 c 0.04388,-0.00844 0.107383,-0.00812 0.141111,7.119e-4 0.03373,0.00883 -0.0022,0.015734 -0.07979,0.015342 -0.07761,-3.916e-4 -0.105207,-0.00762 -0.06132,-0.016054 z m 1.957505,6.327e-4 c 0.03395,-0.00887 0.08952,-0.00887 0.123473,0 0.03395,0.00887 0.0062,0.016133 -0.06174,0.016133 -0.06791,0 -0.09569,-0.00726 -0.06174,-0.016133 z"
           id="path4" /><path
           style="fill:#ff6600;fill-opacity:1"
           d="m 64.643971,68.228028 c 0,-0.0073 0.02778,-0.03511 0.06174,-0.06174 0.05595,-0.04388 0.0572,-0.04263 0.01332,0.01332 -0.04609,0.05876 -0.07506,0.07745 -0.07506,0.04842 z m -48.86422,-0.15425 c -0.04388,-0.05595 -0.04263,-0.0572 0.01332,-0.01332 0.05876,0.04609 0.07745,0.07506 0.04842,0.07506 -0.0073,0 -0.03511,-0.02778 -0.06174,-0.06174 z m 49.463943,-0.414514 c 0.04557,-0.04851 0.09079,-0.08819 0.100493,-0.08819 0.0097,0 -0.01965,0.03969 -0.06522,0.08819 -0.04557,0.04851 -0.09079,0.08819 -0.100493,0.08819 -0.0097,0 0.01965,-0.03969 0.06522,-0.08819 z M 15.149251,67.482875 c -0.08569,-0.08731 -0.147864,-0.15875 -0.138162,-0.15875 0.0097,0 0.08775,0.07144 0.17344,0.15875 0.08569,0.08731 0.147864,0.15875 0.138162,0.15875 -0.0097,0 -0.08775,-0.07144 -0.17344,-0.15875 z M 14.37314,66.706764 c -0.08569,-0.08731 -0.147864,-0.15875 -0.138162,-0.15875 0.0097,0 0.08775,0.07144 0.17344,0.15875 0.08569,0.08731 0.147864,0.15875 0.138162,0.15875 -0.0097,0 -0.08775,-0.07144 -0.17344,-0.15875 z m 52.052359,-0.229306 c 0.03512,-0.0388 0.07179,-0.07055 0.08149,-0.07055 0.0097,0 -0.01109,0.03175 -0.04621,0.07055 -0.03512,0.03881 -0.07179,0.07056 -0.08149,0.07056 -0.0097,0 0.0111,-0.03175 0.04621,-0.07056 z M 13.73364,66.027667 c -0.04388,-0.05595 -0.04263,-0.0572 0.01332,-0.01332 0.05876,0.04609 0.07745,0.07506 0.04842,0.07506 -0.0073,0 -0.03511,-0.02778 -0.06174,-0.06174 z m 53.168109,-0.05742 c 0,-0.0073 0.02778,-0.03511 0.06174,-0.06174 0.05595,-0.04388 0.0572,-0.04263 0.01332,0.01332 -0.04609,0.05876 -0.07506,0.07745 -0.07506,0.04842 z M 27.769876,51.987116 c 1.266031,-0.0051 3.337718,-0.0051 4.603749,0 1.266032,0.0051 0.230188,0.0093 -2.301874,0.0093 -2.532063,0 -3.567907,-0.0042 -2.301875,-0.0093 z m 20.267082,10e-7 c 1.159316,-0.0052 3.056379,-0.0052 4.215694,0 1.159316,0.0052 0.210785,0.0094 -2.107847,0.0094 -2.318632,0 -3.267163,-0.0042 -2.107847,-0.0094 z m 28.286743,-7.896348 c 0.0017,-0.0411 0.01005,-0.04946 0.02131,-0.02131 0.01019,0.02547 0.0089,0.05589 -0.0028,0.06761 -0.01172,0.01172 -0.02006,-0.0091 -0.01853,-0.0463 z m 0.03528,-0.564444 c 0.0017,-0.0411 0.01005,-0.04946 0.02131,-0.02131 0.01019,0.02547 0.0089,0.05589 -0.0028,0.06762 -0.01172,0.01172 -0.02006,-0.0091 -0.01853,-0.0463 z M 4.2159255,43.420492 c 0.00169,-0.0411 0.010052,-0.04946 0.021314,-0.02131 0.010191,0.02547 0.00894,0.05589 -0.00279,0.06762 -0.011722,0.01172 -0.02006,-0.0091 -0.018529,-0.0463 z M 76.399656,42.700237 c 0,-0.06791 0.0073,-0.09569 0.01613,-0.06174 0.0089,0.03395 0.0089,0.08952 0,0.123472 -0.0089,0.03396 -0.01613,0.0062 -0.01613,-0.06174 z M 4.1867591,42.506209 c 3.916e-4,-0.07761 0.00762,-0.105207 0.016054,-0.06132 0.00844,0.04388 0.00812,0.107383 -7.119e-4,0.141112 -0.00883,0.03373 -0.015734,-0.0022 -0.015342,-0.07979 z m 0,-1.905 c 3.916e-4,-0.07761 0.00762,-0.105207 0.016054,-0.06132 0.00844,0.04388 0.00812,0.107383 -7.119e-4,0.141112 -0.00883,0.03373 -0.015734,-0.0022 -0.015342,-0.07979 z M 76.398348,40.389543 c 7.19e-4,-0.05821 0.0086,-0.07775 0.01757,-0.04343 0.0089,0.03432 0.0084,0.08195 -0.0013,0.105833 -0.0097,0.02388 -0.01698,-0.0042 -0.01626,-0.06241 z M 4.2187106,39.666348 c 0,-0.04851 0.00801,-0.06835 0.017794,-0.0441 0.00979,0.02425 0.00979,0.06394 0,0.08819 -0.00979,0.02425 -0.017794,0.0044 -0.017794,-0.0441 z M 76.358978,39.539936 c 0.0017,-0.0411 0.01005,-0.04946 0.02131,-0.02131 0.01019,0.02547 0.0089,0.05589 -0.0028,0.06762 -0.01172,0.01172 -0.02006,-0.0091 -0.01853,-0.0463 z M 45.949535,34.389381 c 0.0017,-0.0411 0.01005,-0.04946 0.02131,-0.02131 0.01019,0.02547 0.0089,0.05589 -0.0028,0.06762 -0.01172,0.01172 -0.02006,-0.0091 -0.01853,-0.0463 z M 34.660647,32.66077 c 0.0017,-0.0411 0.01005,-0.04946 0.02131,-0.02131 0.01019,0.02547 0.0089,0.05589 -0.0028,0.06762 -0.01172,0.01172 -0.02006,-0.0091 -0.01853,-0.0463 z m 16.745339,-3.530563 c 0.02425,-0.0098 0.06394,-0.0098 0.08819,0 0.02425,0.0098 0.0044,0.01779 -0.0441,0.01779 -0.04851,0 -0.06835,-0.008 -0.0441,-0.01779 z m -1.126684,-9.561012 c 0.02547,-0.01019 0.05589,-0.0089 0.06762,0.0028 0.01172,0.01172 -0.0091,0.02006 -0.0463,0.01853 -0.0411,-0.0017 -0.04946,-0.01005 -0.02131,-0.02131 z m -2.892778,-0.03528 c 0.02547,-0.01019 0.05589,-0.0089 0.06762,0.0028 0.01172,0.01172 -0.0091,0.02006 -0.0463,0.01853 -0.0411,-0.0017 -0.04946,-0.01005 -0.02131,-0.02131 z m 2.026939,-3.49e-4 c 0.03432,-0.0089 0.08195,-0.0084 0.105833,0.0013 0.02388,0.0097 -0.0042,0.01698 -0.06241,0.01626 -0.05821,-7.19e-4 -0.07775,-0.0086 -0.04343,-0.01757 z M 66.72086,16.921002 c -0.04388,-0.05595 -0.04263,-0.0572 0.01332,-0.01332 0.05876,0.04609 0.07745,0.07506 0.04842,0.07506 -0.0073,0 -0.03511,-0.02778 -0.06174,-0.06174 z m -52.806331,-0.05742 c 0,-0.0073 0.02778,-0.03511 0.06174,-0.06174 0.05595,-0.04388 0.0572,-0.04263 0.01332,0.01332 -0.04609,0.05876 -0.07506,0.07745 -0.07506,0.04842 z m 51.928887,-0.850986 c -0.08569,-0.08731 -0.147864,-0.15875 -0.138163,-0.15875 0.0097,0 0.08775,0.07144 0.173441,0.15875 0.08569,0.08731 0.147863,0.15875 0.138162,0.15875 -0.0097,0 -0.08775,-0.07144 -0.17344,-0.15875 z M 15.537307,15.240808 c 0,-0.0073 0.02778,-0.03511 0.06174,-0.06174 0.05595,-0.04388 0.0572,-0.04263 0.01332,0.01332 -0.04609,0.05876 -0.07505,0.07745 -0.07505,0.04842 z M 38.49432,5.4588191 c 0.02425,-0.00979 0.06394,-0.00979 0.08819,0 0.02425,0.00979 0.0044,0.017794 -0.0441,0.017794 -0.04851,0 -0.06835,-0.00801 -0.0441,-0.017794 z m 3.56526,-7.35e-4 c 0.02547,-0.010191 0.05589,-0.00894 0.06762,0.00279 0.01172,0.011722 -0.0091,0.02006 -0.0463,0.018529 -0.0411,-0.00169 -0.04946,-0.010052 -0.02131,-0.021314 z m -2.541794,-0.03613 c 0.04388,-0.00844 0.107383,-0.00812 0.141112,7.119e-4 0.03373,0.00883 -0.0022,0.015734 -0.07979,0.015342 -0.07761,-3.916e-4 -0.105207,-0.00762 -0.06132,-0.016054 z m 1.445978,5.39e-5 c 0.04366,-0.00841 0.115094,-0.00841 0.15875,0 0.04366,0.00841 0.0079,0.015288 -0.07938,0.015288 -0.08731,0 -0.123031,-0.00688 -0.07937,-0.015288 z"
           id="path3" /><path
           style="fill:#ff6600;fill-opacity:1"
           d="m 64.044249,68.757194 c 0,-0.0073 0.02778,-0.03511 0.06174,-0.06174 0.05595,-0.04388 0.0572,-0.04263 0.01332,0.01332 -0.04609,0.05876 -0.07506,0.07745 -0.07506,0.04842 z M 16.414751,68.638222 c -0.04388,-0.05595 -0.04263,-0.0572 0.01332,-0.01332 0.03395,0.02663 0.06174,0.05441 0.06174,0.06174 0,0.02904 -0.02897,0.01035 -0.07506,-0.04842 z m 47.946998,-0.16325 c 0,-0.0073 0.02778,-0.03511 0.06174,-0.06174 0.05595,-0.04388 0.0572,-0.04263 0.01332,0.01332 -0.04609,0.05876 -0.07506,0.07745 -0.07506,0.04842 z m 0.440972,-0.410014 c 0.03512,-0.03881 0.07179,-0.07055 0.08149,-0.07055 0.0097,0 -0.01109,0.03175 -0.04621,0.07055 -0.03512,0.03881 -0.07179,0.07056 -0.08149,0.07056 -0.0097,0 0.01109,-0.03175 0.04621,-0.07056 z m -49.145294,-0.114653 -0.0672,-0.07937 0.07938,0.0672 c 0.04366,0.03696 0.07937,0.07268 0.07937,0.07937 0,0.02823 -0.02839,0.0074 -0.09155,-0.0672 z m 49.868489,-0.573263 c 0.10539,-0.106716 0.199555,-0.194028 0.209256,-0.194028 0.0097,0 -0.06859,0.08731 -0.173978,0.194028 -0.10539,0.106715 -0.199555,0.194027 -0.209257,0.194027 -0.0097,0 0.06859,-0.08731 0.173979,-0.194027 z M 14.760176,67.086 14.53189,66.847875 l 0.238125,0.228286 c 0.221181,0.212043 0.254251,0.247964 0.228286,0.247964 -0.0054,0 -0.112567,-0.107156 -0.238125,-0.238125 z m 51.383101,-0.32632 c 0.115202,-0.116416 0.217395,-0.211666 0.227097,-0.211666 0.0097,0 -0.07662,0.09525 -0.191819,0.211666 -0.115202,0.116417 -0.217396,0.211667 -0.227097,0.211667 -0.0097,0 0.07662,-0.09525 0.191819,-0.211667 z m -52.285017,-0.608541 -0.0672,-0.07937 0.07937,0.0672 c 0.07459,0.06315 0.09544,0.09155 0.0672,0.09155 -0.0067,0 -0.04241,-0.03572 -0.07938,-0.07937 z m 52.955295,-0.09701 c 0.03512,-0.03881 0.07179,-0.07056 0.08149,-0.07056 0.0097,0 -0.01109,0.03175 -0.04621,0.07056 -0.03512,0.03881 -0.07179,0.07056 -0.08149,0.07056 -0.0097,0 0.01109,-0.03175 0.04621,-0.07056 z M 13.451418,65.710167 c -0.04388,-0.05595 -0.04263,-0.0572 0.01332,-0.01332 0.03396,0.02663 0.06174,0.05441 0.06174,0.06174 0,0.02903 -0.02897,0.01035 -0.07505,-0.04842 z m -0.282222,-0.3175 c -0.04388,-0.05595 -0.04263,-0.0572 0.01332,-0.01332 0.03395,0.02663 0.06174,0.05441 0.06174,0.06174 0,0.02903 -0.02897,0.01035 -0.07506,-0.04842 z M 76.288423,44.478825 c 0.0017,-0.0411 0.01005,-0.04946 0.02131,-0.02131 0.01019,0.02547 0.0089,0.05589 -0.0028,0.06762 -0.01172,0.01172 -0.02006,-0.0091 -0.01853,-0.0463 z M 4.2864811,44.408269 c 0.00169,-0.0411 0.010052,-0.04946 0.021314,-0.02131 0.010191,0.02547 0.00894,0.05589 -0.00279,0.06762 -0.011723,0.01172 -0.02006,-0.0091 -0.018529,-0.0463 z M 4.2512033,43.91438 c 0.00169,-0.0411 0.010052,-0.04946 0.021314,-0.02131 0.010191,0.02547 0.00894,0.05589 -0.00279,0.06762 -0.011723,0.01172 -0.02006,-0.0091 -0.018529,-0.0463 z M 76.358978,43.420492 c 0.0017,-0.0411 0.01005,-0.04946 0.02131,-0.02131 0.01019,0.02547 0.0089,0.05589 -0.0028,0.06762 -0.01172,0.01172 -0.02006,-0.0091 -0.01853,-0.0463 z M 4.2187106,43.299959 c 0,-0.04851 0.00801,-0.06835 0.017794,-0.0441 0.00979,0.02425 0.00979,0.06394 0,0.08819 -0.00979,0.02425 -0.017794,0.0044 -0.017794,-0.0441 z M 76.400367,42.470931 c 3.92e-4,-0.07761 0.0076,-0.105207 0.01605,-0.06132 0.0084,0.04388 0.0081,0.107382 -7.12e-4,0.141111 -0.0088,0.03373 -0.01573,-0.0022 -0.01534,-0.07979 z M 4.1884341,42.206348 c 0,-0.106715 0.00661,-0.150371 0.014696,-0.09701 0.00808,0.05336 0.00808,0.14067 0,0.194028 -0.00808,0.05336 -0.014696,0.0097 -0.014696,-0.09701 z m -4.815e-4,-1.322917 c 2.648e-4,-0.09701 0.00712,-0.132514 0.015225,-0.07889 0.00811,0.05362 0.00789,0.132999 -4.815e-4,0.176388 -0.00837,0.04339 -0.015008,-4.85e-4 -0.014743,-0.0975 z M 76.400367,40.601209 c 3.92e-4,-0.07761 0.0076,-0.105207 0.01605,-0.06132 0.0084,0.04388 0.0081,0.107383 -7.12e-4,0.141112 -0.0088,0.03373 -0.01573,-0.0022 -0.01534,-0.07979 z M 4.2187106,39.807459 c 0,-0.04851 0.00801,-0.06835 0.017794,-0.0441 0.00979,0.02425 0.00979,0.06394 0,0.08819 -0.00979,0.02425 -0.017794,0.0044 -0.017794,-0.0441 z M 76.361763,39.666348 c 0,-0.04851 0.008,-0.06835 0.01779,-0.0441 0.0098,0.02425 0.0098,0.06394 0,0.08819 -0.0098,0.02425 -0.01779,0.0044 -0.01779,-0.0441 z M 4.2512033,39.151881 c 0.00169,-0.0411 0.010052,-0.04946 0.021314,-0.02131 0.010191,0.02547 0.00894,0.05589 -0.00279,0.06762 -0.011723,0.01172 -0.02006,-0.0091 -0.018529,-0.0463 z m 72.0724977,-0.07056 c 0.0017,-0.0411 0.01005,-0.04946 0.02131,-0.02131 0.01019,0.02547 0.0089,0.05589 -0.0028,0.06762 -0.01172,0.01172 -0.02006,-0.0091 -0.01853,-0.0463 z M 45.956358,34.586348 c 0,-0.08731 0.0069,-0.123031 0.01529,-0.07937 0.0084,0.04366 0.0084,0.115094 0,0.15875 -0.0084,0.04366 -0.01529,0.0079 -0.01529,-0.07937 z M 34.663432,32.540237 c 0,-0.04851 0.008,-0.06835 0.01779,-0.0441 0.0098,0.02425 0.0098,0.06394 0,0.0882 -0.0098,0.02425 -0.01779,0.0044 -0.01779,-0.0441 z m 0.03249,-0.585023 c 0.0017,-0.0411 0.01005,-0.04946 0.02131,-0.02131 0.01019,0.02547 0.0089,0.05589 -0.0028,0.06762 -0.01172,0.01172 -0.02006,-0.0091 -0.01853,-0.0463 z m 19.267565,-2.827981 2.425211,-0.0094 0.0092,-4.453578 0.0092,-4.453577 -2.05e-4,4.462638 -2.05e-4,4.462639 -2.434167,3.62e-4 -2.434167,3.62e-4 z M 37.991611,23.544404 c 0.03512,-0.0388 0.07179,-0.07055 0.08149,-0.07055 0.0097,0 -0.01109,0.03175 -0.04621,0.07055 -0.03512,0.03881 -0.07179,0.07056 -0.08149,0.07056 -0.0097,0 0.0111,-0.03175 0.04621,-0.07056 z m 0.776111,-0.776111 c 0.03512,-0.0388 0.07179,-0.07055 0.08149,-0.07055 0.0097,0 -0.01109,0.03175 -0.04621,0.07055 -0.03512,0.03881 -0.07179,0.07056 -0.08149,0.07056 -0.0097,0 0.0111,-0.03175 0.04621,-0.07056 z m 12.217135,-3.163821 c 0.02547,-0.01019 0.05589,-0.0089 0.06762,0.0028 0.01172,0.01172 -0.0091,0.02006 -0.0463,0.01853 -0.0411,-0.0017 -0.04946,-0.01005 -0.02131,-0.02131 z M 50.38293,19.56993 c 0.02425,-0.0098 0.06394,-0.0098 0.08819,0 0.02425,0.0098 0.0044,0.01779 -0.0441,0.01779 -0.04851,0 -0.06835,-0.008 -0.0441,-0.01779 z m -3.102239,-0.03601 c 0.02547,-0.01019 0.05589,-0.0089 0.06762,0.0028 0.01172,0.01172 -0.0091,0.02006 -0.0463,0.01853 -0.0411,-0.0017 -0.04946,-0.01005 -0.02131,-0.02131 z m 2.308489,-2.19e-4 c 0.03395,-0.0089 0.08952,-0.0089 0.123473,0 0.03395,0.0089 0.0062,0.01613 -0.06174,0.01613 -0.06791,0 -0.09569,-0.0073 -0.06174,-0.01613 z M 67.320583,17.59128 c -0.04388,-0.05595 -0.04263,-0.0572 0.01332,-0.01332 0.05876,0.04609 0.07745,0.07506 0.04842,0.07506 -0.0073,0 -0.03511,-0.02778 -0.06174,-0.06174 z m -0.282223,-0.3175 c -0.04388,-0.05595 -0.04263,-0.0572 0.01332,-0.01332 0.05876,0.04609 0.07745,0.07506 0.04842,0.07506 -0.0073,0 -0.03511,-0.02778 -0.06174,-0.06174 z M 13.614668,17.19441 c 0.03512,-0.03881 0.07179,-0.07056 0.08149,-0.07056 0.0097,0 -0.01109,0.03175 -0.04621,0.07056 -0.03512,0.0388 -0.07179,0.07055 -0.08149,0.07055 -0.0097,0 0.01109,-0.03175 0.04621,-0.07055 z m 52.983868,-0.396875 -0.0672,-0.07937 0.07937,0.0672 c 0.07459,0.06316 0.09543,0.09155 0.0672,0.09155 -0.0067,0 -0.04241,-0.03572 -0.07937,-0.07938 z m -52.525257,-0.09701 c 0.03512,-0.03881 0.07179,-0.07056 0.08149,-0.07056 0.0097,0 -0.01109,0.03175 -0.04621,0.07056 -0.03512,0.0388 -0.07179,0.07055 -0.08149,0.07055 -0.0097,0 0.01109,-0.03175 0.04621,-0.07055 z m 1.358194,-1.358195 c 0.04557,-0.04851 0.09079,-0.08819 0.100494,-0.08819 0.0097,0 -0.01965,0.03969 -0.06522,0.08819 -0.04557,0.04851 -0.09079,0.0882 -0.100493,0.0882 -0.0097,0 0.01965,-0.03969 0.06522,-0.0882 z m 49.597884,-0.114652 -0.08552,-0.09701 0.09701,0.08552 c 0.05336,0.04704 0.09701,0.0907 0.09701,0.09701 0,0.02767 -0.02857,0.0052 -0.108503,-0.08552 z M 15.943001,14.866071 c 0.03512,-0.0388 0.07179,-0.07056 0.08149,-0.07056 0.0097,0 -0.01109,0.03175 -0.04621,0.07056 -0.03512,0.03881 -0.07179,0.07056 -0.08149,0.07056 -0.0097,0 0.01109,-0.03175 0.04621,-0.07056 z m 48.590637,-0.09701 c -0.04388,-0.05595 -0.04263,-0.0572 0.01332,-0.01332 0.05876,0.04609 0.07745,0.07506 0.04842,0.07506 -0.0073,0 -0.03511,-0.02778 -0.06174,-0.06174 z M 16.242862,14.605808 c 0,-0.0073 0.02778,-0.03511 0.06174,-0.06174 0.05595,-0.04388 0.0572,-0.04263 0.01332,0.01332 -0.04609,0.05876 -0.07506,0.07745 -0.07506,0.04842 z m 47.973276,-0.118973 c -0.04388,-0.05595 -0.04263,-0.0572 0.01332,-0.01332 0.05876,0.04609 0.07745,0.07506 0.04842,0.07506 -0.0073,0 -0.03511,-0.02778 -0.06174,-0.06174 z m -47.655776,-0.16325 c 0,-0.0073 0.02778,-0.03511 0.06174,-0.06174 0.05595,-0.04388 0.0572,-0.04263 0.01332,0.01332 -0.04609,0.05876 -0.07506,0.07745 -0.07506,0.04842 z M 37.473469,5.5286397 c 0.02547,-0.010191 0.05589,-0.00894 0.06762,0.00278 0.01172,0.011723 -0.0091,0.02006 -0.0463,0.018529 -0.0411,-0.00169 -0.04946,-0.010052 -0.02131,-0.021314 z m 5.609166,0 c 0.02547,-0.010191 0.05589,-0.00894 0.06762,0.00278 0.01172,0.011723 -0.0091,0.02006 -0.0463,0.018529 -0.0411,-0.00169 -0.04946,-0.010052 -0.02131,-0.021314 z m -5.115277,-0.035278 c 0.02547,-0.010191 0.05589,-0.00894 0.06762,0.00279 0.01172,0.011723 -0.0091,0.02006 -0.0463,0.018529 -0.0411,-0.00169 -0.04946,-0.010052 -0.02131,-0.021314 z m 4.621389,0 c 0.02547,-0.010191 0.05589,-0.00894 0.06762,0.00279 0.01172,0.011723 -0.0091,0.02006 -0.0463,0.018529 -0.0411,-0.00169 -0.04946,-0.010052 -0.02131,-0.021314 z m -3.953316,-0.034543 c 0.02425,-0.00979 0.06394,-0.00979 0.08819,0 0.02425,0.00979 0.0044,0.017794 -0.0441,0.017794 -0.04851,0 -0.06835,-0.00801 -0.0441,-0.017794 z m 3.263865,-0.00108 c 0.03433,-0.00894 0.08195,-0.00836 0.105834,0.00131 0.02388,0.00966 -0.0042,0.016981 -0.06241,0.016263 -0.05821,-7.19e-4 -0.07775,-0.00863 -0.04343,-0.01757 z m -1.905671,-0.037097 c 0.169774,-0.00647 0.447587,-0.00647 0.617361,0 0.169775,0.00647 0.03087,0.011758 -0.30868,0.011758 -0.339549,0 -0.478455,-0.00529 -0.308681,-0.011758 z"
           id="path2" /><path
           style="fill:#ff6600;fill-opacity:1"
           d="M 34.287445,77.16194 C 31.811452,76.711746 29.923737,76.209692 27.86569,75.454019 23.645475,73.904442 19.869581,71.649497 16.383973,68.597196 15.350514,67.692209 13.663268,65.964523 12.694608,64.819403 8.6964759,60.092935 5.9450604,54.304588 4.813726,48.239836 4.0737367,44.27297 3.9970905,40.185128 4.5878218,36.191487 5.9113432,27.243817 10.613797,19.071734 17.724529,13.362073 23.128284,9.023053 29.679155,6.3328854 36.562861,5.6259609 37.983372,5.4800811 38.343312,5.464544 40.302306,5.464544 c 1.958994,0 2.318934,0.015537 3.739444,0.1614169 3.62774,0.372552 7.030621,1.2520336 10.459861,2.7033728 0.959831,0.4062242 2.723389,1.2845583 3.686527,1.8360623 7.505299,4.297622 13.208794,11.089859 16.122258,19.199841 2.087354,5.810408 2.636461,12.15346 1.584993,18.309166 -1.158769,6.783886 -4.234649,13.071364 -8.905204,18.203333 -0.442403,0.486109 -1.619722,1.669309 -2.150399,2.161141 -5.148911,4.772013 -11.549376,7.931531 -18.452064,9.108656 -0.174625,0.02978 -0.345281,0.0542 -0.379236,0.05426 -0.05868,1.07e-4 -0.06174,-0.623085 -0.06174,-12.594054 V 52.01357 h 4.212891 4.212891 l 0.0196,-0.09701 c 0.03742,-0.185264 1.573509,-10.259792 1.573509,-10.319966 0,-0.05689 -0.300578,-0.06052 -5.012233,-0.06052 H 45.94117 l 0.01528,-3.730625 c 0.01675,-4.090267 0.0138,-4.029309 0.236847,-4.892289 0.479127,-1.853742 1.710807,-3.06072 3.616372,-3.543844 0.763145,-0.193482 0.750013,-0.192739 3.774723,-0.213763 l 2.822222,-0.01962 0.009,-4.451399 c 0.0085,-4.217051 0.0057,-4.452369 -0.05292,-4.469824 -0.08899,-0.0265 -1.178757,-0.181588 -2.002149,-0.28493 -3.342964,-0.419566 -6.395117,-0.521969 -8.343195,-0.279923 -2.654165,0.329776 -4.893398,1.228328 -6.773333,2.71798 -0.398577,0.315831 -1.330963,1.252174 -1.663397,1.670457 -1.697338,2.135667 -2.659479,4.84019 -2.886537,8.113889 -0.02085,0.300679 -0.03562,2.340095 -0.03583,4.947708 l -3.49e-4,4.43618 h -4.58611 -4.586111 v 5.23875 5.23875 h 4.586111 4.58611 v 12.594166 12.594166 l -0.09701,-0.0039 c -0.05336,-0.0022 -0.176389,-0.01838 -0.273403,-0.03602 z"
           id="path1" /></g></g></g></svg>
