<?xml version="1.0" encoding="UTF-8" standalone="no"?>
<!-- Created with Inkscape (http://www.inkscape.org/) -->

<svg
   width="350"
   height="50"
   viewBox="0 0 92.604165 13.229167"
   version="1.1"
   id="svg1"
   inkscape:version="1.3 (0e150ed6c4, 2023-07-21)"
   sodipodi:docname="Menu-lescopainsduparc-évènements'.svg"
   xmlns:inkscape="http://www.inkscape.org/namespaces/inkscape"
   xmlns:sodipodi="http://sodipodi.sourceforge.net/DTD/sodipodi-0.dtd"
   xmlns="http://www.w3.org/2000/svg"
   xmlns:svg="http://www.w3.org/2000/svg">
  <sodipodi:namedview
     id="namedview1"
     pagecolor="#ffffff"
     bordercolor="#000000"
     borderopacity="0.25"
     inkscape:showpageshadow="2"
     inkscape:pageopacity="0.0"
     inkscape:pagecheckerboard="0"
     inkscape:deskcolor="#d1d1d1"
     inkscape:document-units="mm"
     inkscape:zoom="1.9300999"
     inkscape:cx="152.32372"
     inkscape:cy="156.98669"
     inkscape:window-width="1920"
     inkscape:window-height="972"
     inkscape:window-x="0"
     inkscape:window-y="40"
     inkscape:window-maximized="1"
     inkscape:current-layer="layer1" />
  <defs
     id="defs1" />
  <g
     inkscape:label="Calque 1"
     inkscape:groupmode="layer"
     id="layer1">
    <path
       d="m 14.692473,11.098319 q -1.5748,-0.0254 -3.2004,-0.0508 -1.6001996,0 -3.1495996,0.4572 -0.5588,0.1524 -1.27,0.6096 -0.7111999,0.4572 -1.1175999,0.6604 -0.4064,0.2286 -0.8636,0.3048 -0.635,-0.127 -0.4826,-0.6604 0.127,-0.5334 0.5334,-0.9906 0.4318,-0.4572 0.6858,-0.9906 0.254,-0.5333996 0.6603999,-1.4223996 0.4318,-0.8636 0.762,-1.8288 0.889,-2.286 1.0414,-3.6829999 -0.254,-0.1016 -0.3048,-0.381 -0.0508,-0.2794 0.1524,-0.4064 0.2032,-0.1524 0.2794,-0.1778 0.1016,-0.0508 0.2032,-0.1016 0.5842,-0.2286 0.762,0.381 v 0.2794 q 0.5334,-0.1016 1.0667996,-0.2032 0.5588,-0.127 1.1176,-0.1778 1.2954,-0.1524 2.1082,0.2032 0.4318,0.3048 0.1778,0.7112 -0.2286,0.3809999 -0.6858,0.2031999 -0.4572,-0.2031999 -0.9398,-0.2031999 -0.4826,-0.0254 -0.9906,0.0762 -0.4826,0.0762 -0.9906,0.2031999 -0.5079996,0.127 -0.9905996,0.2032 -0.1524,0.8128 -0.6604,2.3114 0.6858,-0.0762 1.4985996,-0.127 0.8382,-0.0762 1.2446,-0.2794 0.4318,-0.2286 0.6096,-0.1778 0.127,0.0254 0.2286,0.1778 0.2032,0.3302 -0.0508,0.7112 -0.8128,0.4318 -1.8034,0.5334 -0.9905996,0.0762 -1.8795996,0.1778 -0.0762,0 -0.2286,-0.0508 -0.2032,0.508 -0.4318,0.9906 -0.2032,0.4826 -0.4064,0.9906 -0.2032,0.4826 -0.4064,1.0159996 -0.2032,0.5334 -0.381,0.762 -0.1524,0.2286 -0.1524,0.254 1.0668,-0.7112 1.6256,-0.8636 1.651,-0.4572 3.3019996,-0.4572 1.6764,-0.0254 3.3528,0 0.4318,0.1524 0.4318,0.5334 0,0.381 -0.4572,0.4826 z M 15.58149,6.8057194 q -0.1524,-0.4318 0.0508,-0.6096 0.2032,-0.2032 0.3556,-0.2032 0.1778,0 0.381,0.1524 0.5588,0.5842 0.6858,2.0574 0.0508,0.5588 0.1016,1.1684 0.0762,0.5842 0.3048,1.0667996 0.4826,-0.4064 0.762,-0.9143996 0.3048,-0.508 0.5842,-1.0414 0.3048,-0.5588 0.6858,-1.0668 0.406399,-0.5334 1.142999,-0.9906 0.4318,-0.2032 0.635,0.1524 0.2032,0.3302 -0.0508,0.6858 -0.6096,0.381 -1.016,0.9144 -0.381,0.508 -0.736599,1.0922 -0.3302,0.5842 -0.6858,1.1429996 -0.3556,0.5588 -0.889,1.016 -0.2286,0.127 -0.4826,0.1016 -0.7874,-0.254 -1.0414,-0.8636 -0.2286,-0.6096 -0.2794,-1.3207996 -0.0254,-0.7112 -0.0762,-1.397 -0.0254,-0.7112 -0.4318,-1.143 z m 9.321819,-4.2417999 q -0.254,-0.4064 -0.3048,-0.7366 -0.0508,-0.3556 0.0762,-0.508 0.127,-0.1778 0.3048,-0.2286 0.4572,-0.10160001 0.6096,0.4318 0.2032,1.0414 1.8796,2.1082 0.4318,0.3047999 0.1778,0.7111999 -0.2286,0.381 -0.7112,0.1778 -1.3208,-0.7873999 -2.032,-1.9557999 z m 2.7686,2.3621999 q 0.2794,0.2032 0.2286,0.7366 -0.0254,0.508 -0.4572,0.9652 -0.4064,0.4572 -0.9906,0.7366 -0.8128,0.381 -2.4638,0.6096 -1.371599,1.5494 -0.685799,2.1335996 0.634999,0.5842 2.819399,0.2794 1.5748,-0.2032 2.8956,-0.6349996 0.4572,-0.0508 0.5842,0.3555996 0.127,0.381 -0.3048,0.6096 -3.048,0.8636 -5.1054,0.6858 -1.295399,-0.127 -1.727199,-0.7366 -0.4064,-0.6096 -0.2286,-1.4477996 0.1778,-0.8382 0.8128,-1.7272 0.634999,-0.889 1.447799,-1.5748 0.8128,-0.6858 1.6764,-0.9906 0.8636,-0.3302 1.4986,0 z m -0.9144,0.889 q -0.4572,0.1016 -1.4986,0.9398 1.016,-0.3048 1.4986,-0.9398 z m 3.047988,5.1561996 q -0.3302,-0.7874 -0.2794,-1.9049996 0.0762,-1.143 0.127,-1.7018 0.0508,-0.5588 -0.0254,-0.9144 -0.2286,-0.127 -0.254,-0.4064 -0.0508,-0.2794 0.127,-0.4064 0.2032,-0.127 0.2286,-0.127 0.4064,-0.2032 0.7112,0.2032 0.381,0.8382 0.127,2.8956 -0.0508,0.508 -0.0508,0.9144 1.143,-1.7526 2.3876,-3.0988 0.889,-0.9398 1.7526,-0.9906 0.4318,-0.0254 0.8636,-0.1016 0.4572,-0.1016 0.8128,0.1016 1.524,0.9144 1.0922,3.0226 -0.1778,0.9144 -0.6604,1.7271996 -0.8128,1.397 -1.4478,1.524 -0.2286,0.0508 -0.4572,0.1016 -0.2286,0.0762 -0.4064,-0.0254 -0.1524,-0.1016 -0.2032,-0.2794 -0.127,-0.4318 0.3302,-0.6096 0.4572,-0.1778 0.8382,-0.6096 0.4064,-0.4571996 0.6604,-1.0159996 0.2794,-0.5842 0.381,-1.1684 0.1016,-0.6096 -0.0254,-1.0668 -0.3048,-1.016 -1.6764,-0.5842 -0.7874,0.2286 -1.3462,0.7874 -0.5588,0.5588 -1.016,1.2446 -0.4572,0.6604 -0.889,1.3716 -0.4318,0.6857996 -0.9652,1.2191996 -0.4064,0.2286 -0.7366,-0.1016 z M 44.105692,4.9261194 q 0.2794,0.2032 0.2286,0.7366 -0.0254,0.508 -0.4572,0.9652 -0.4064,0.4572 -0.9906,0.7366 -0.8128,0.381 -2.4638,0.6096 -1.3716,1.5494 -0.6858,2.1335996 0.635,0.5842 2.8194,0.2794 1.5748,-0.2032 2.8956,-0.6349996 0.4572,-0.0508 0.5842,0.3555996 0.127,0.381 -0.3048,0.6096 -3.048,0.8636 -5.1054,0.6858 -1.2954,-0.127 -1.7272,-0.7366 -0.4064,-0.6096 -0.2286,-1.4477996 0.1778,-0.8382 0.8128,-1.7272 0.635,-0.889 1.4478,-1.5748 0.8128,-0.6858 1.6764,-0.9906 0.8636,-0.3302 1.4986,0 z m -0.9144,0.889 q -0.4572,0.1016 -1.4986,0.9398 1.016,-0.3048 1.4986,-0.9398 z m 8.432788,1.9304 -0.0254,0.8128 v 0.4064 q 0.0762,-0.1524 0.1524,-0.3048 0.0762,-0.1778 0.2794,-0.4318 0.2286,-0.2794 0.8128,-0.9144 0.5842,-0.635 1.2954,-1.2192 1.7526,-1.4224 2.6924,-1.2954 0.9652,0.127 1.4478,0.6096 0.508,0.4826 0.6858,1.1684 0.1778,0.6604 0.0508,1.4224 -0.127,0.762 -0.4826,1.4478 -0.8128,1.6001996 -2.1844,1.8795996 -0.508,0.1016 -0.635,-0.3302 -0.127,-0.4318 0.3556,-0.635 0.9906,-0.2794 1.5748,-1.4477996 0.5334,-1.0668 0.3302,-2.0828 -0.3048,-1.6764 -2.2352,-0.6096 -1.2192,0.6604 -2.286,1.8796 -0.6096,0.6604 -0.889,1.2446 -0.254,0.5842 -0.4064,0.8889996 -0.381,0.7874 -0.762,1.0922 -0.3048,0.1524 -0.5588,0.0254 -0.2286,-0.1016 -0.2794,-0.4572 -0.127,-1.0413996 -0.0254,-2.1081996 0.1016,-1.0668 0.0508,-2.1082 -0.5588,0.5588 -0.8128,1.2954 -0.254,0.7112 -0.4064,1.4478 -0.1524,0.7365996 -0.3302,1.4477996 -0.1778,0.7112 -0.5842,1.2446 -0.5588,0.2794 -0.8128,-0.254 -0.127,-0.4064 -0.1524,-1.27 -0.0254,-0.8635996 -0.0762,-1.8033996 -0.1524,-2.3876 -0.6858,-2.6924 -0.1778,-0.127 -0.508,0.0762 -0.3302,0.2032 -0.4572,0.2286 -0.127,0.0254 -0.3048,-0.0762 -0.1524,-0.0508 -0.2286,-0.2032 -0.2032,-0.3556 0.2032,-0.6604 1.6764,-0.8128 2.3876,0.4064 0.3048,0.5588 0.4064,1.3716 0.127,0.8128 0.1778,1.651 0.2286,-0.8128 0.5334,-1.5748 0.3302,-0.762 0.8128,-1.2446 0.4826,-0.508 0.8128,-0.5842 0.3302,-0.0762 0.5588,0.0762 0.508,0.3556 0.508,1.3462 z m 14.1986,-2.8194 q 0.2794,0.2032 0.2286,0.7366 -0.0254,0.508 -0.4572,0.9652 -0.4064,0.4572 -0.9906,0.7366 -0.8128,0.381 -2.4638,0.6096 -1.3716,1.5494 -0.6858,2.1335996 0.635,0.5842 2.8194,0.2794 1.5748,-0.2032 2.8956,-0.6349996 0.4572,-0.0508 0.5842,0.3555996 0.127,0.381 -0.3048,0.6096 -3.048,0.8636 -5.1054,0.6858 -1.2954,-0.127 -1.7272,-0.7366 -0.4064,-0.6096 -0.2286,-1.4477996 0.1778,-0.8382 0.8128,-1.7272 0.635,-0.889 1.4478,-1.5748 0.8128,-0.6858 1.6764,-0.9906 0.8636,-0.3302 1.4986,0 z m -0.9144,0.889 q -0.4572,0.1016 -1.4986,0.9398 1.016,-0.3048 1.4986,-0.9398 z m 3.047987,5.1561996 q -0.3302,-0.7874 -0.2794,-1.9049996 0.0762,-1.143 0.127,-1.7018 0.0508,-0.5588 -0.0254,-0.9144 -0.2286,-0.127 -0.254,-0.4064 -0.0508,-0.2794 0.127,-0.4064 0.2032,-0.127 0.2286,-0.127 0.4064,-0.2032 0.7112,0.2032 0.381,0.8382 0.127,2.8956 -0.0508,0.508 -0.0508,0.9144 1.143,-1.7526 2.3876,-3.0988 0.889,-0.9398 1.7526,-0.9906 0.4318,-0.0254 0.8636,-0.1016 0.4572,-0.1016 0.8128,0.1016 1.524,0.9144 1.0922,3.0226 -0.1778,0.9144 -0.6604,1.7271996 -0.8128,1.397 -1.4478,1.524 -0.2286,0.0508 -0.4572,0.1016 -0.2286,0.0762 -0.4064,-0.0254 -0.1524,-0.1016 -0.2032,-0.2794 -0.127,-0.4318 0.3302,-0.6096 0.4572,-0.1778 0.8382,-0.6096 0.4064,-0.4571996 0.6604,-1.0159996 0.2794,-0.5842 0.381,-1.1684 0.1016,-0.6096 -0.0254,-1.0668 -0.3048,-1.016 -1.6764,-0.5842 -0.7874,0.2286 -1.3462,0.7874 -0.5588,0.5588 -1.016,1.2446 -0.4572,0.6604 -0.889,1.3716 -0.4318,0.6857996 -0.9652,1.2191996 -0.4064,0.2286 -0.7366,-0.1016 z M 78.446464,6.4247194 q -0.4572,0.127 -1.0922,0.3048 -0.508,0.1016 -0.635,-0.3302 -0.127,-0.4318 0.3048,-0.6096 0.4826,-0.1778 1.6256,-0.4572 0.127,-0.9144 0.4318,-1.9303999 0.3302,-1.016 0.4826,-1.7526 -0.0508,-0.1016 0.0254,-0.381 0.0762,-0.27940001 0.127,-0.43180001 0.0762,-0.15239999 0.2286,-0.20319999 0.1524,-0.0762 0.3302,-0.0508 0.381,0.1016 0.381,0.5334 h 0.0254 l -0.0508,0.1016 q -0.1524,0.9144 -0.4064,1.8034 -0.2286,0.8889999 -0.4318,1.7779999 l -0.0762,0.3048 1.6002,-0.3048 q 0.254,-0.0254 0.4064,0.1016 0.1524,0.127 0.1778,0.3048 0.0254,0.1778 -0.1016,0.3556 -0.1016,0.1778 -0.508,0.254 -1.3208,0.254 -1.778,0.3556 -0.2794,1.5494 -0.635,3.048 -0.3302,1.4731996 -1.016,2.9209996 -0.3048,0.4064 -0.6604,0.2032 -0.3556,-0.2032 -0.254,-0.635 0.6096,-1.2954 0.9144,-2.5907996 0.3302,-1.3208 0.5842,-2.6924 z m 9.16942,-0.2794 q 0.3556,0.3048 0.254,0.5588 -0.2032,0.4826 -0.635,0.381 -0.508,-0.2032 -1.1176,0 -1.016,0.3302 -1.7018,0.7366 0.4826,0.3048 1.016,0.4826 0.5588,0.1778 1.016,0.4572 1.0668,0.5588 1.3208,1.5239996 -0.0508,0.3048 -0.1778,0.4572 -1.0922,0.762 -2.794,1.1176 -1.651,0.3556 -3.0226,0.0762 -0.4318,-0.2032 -0.3302,-0.5842 0.1016,-0.3556 0.5334,-0.4064 1.6256,0.2794 3.7084,-0.3556 0.6096,-0.1778 0.9652,-0.4318 -0.4318,-0.3047996 -0.9652,-0.5079996 -0.5334,-0.2032 -1.0414,-0.4318 -0.4826,-0.254 -0.8636,-0.5842 -0.3556,-0.3302 -0.4572,-0.9144 -0.0254,-0.3556 0.2286,-0.5588 2.54,-1.5748 4.064,-1.016 z"
       id="text11"
       style="font-size:25.4px;font-family:Karumbi;-inkscape-font-specification:Karumbi;fill:#ff6600;stroke:#000000;stroke-width:0.343958"
       aria-label="Evènements" />
  </g>
</svg>
