<?xml version="1.0" encoding="UTF-8" standalone="no"?>
<!-- Created with Inkscape (http://www.inkscape.org/) -->

<svg
   width="350"
   height="50"
   viewBox="0 0 92.604165 13.229167"
   version="1.1"
   id="svg1"
   inkscape:version="1.3 (0e150ed6c4, 2023-07-21)"
   sodipodi:docname="Menu-lescopainsduparc-contact.svg"
   xmlns:inkscape="http://www.inkscape.org/namespaces/inkscape"
   xmlns:sodipodi="http://sodipodi.sourceforge.net/DTD/sodipodi-0.dtd"
   xmlns="http://www.w3.org/2000/svg"
   xmlns:svg="http://www.w3.org/2000/svg">
  <sodipodi:namedview
     id="namedview1"
     pagecolor="#ffffff"
     bordercolor="#000000"
     borderopacity="0.25"
     inkscape:showpageshadow="2"
     inkscape:pageopacity="0.0"
     inkscape:pagecheckerboard="0"
     inkscape:deskcolor="#d1d1d1"
     inkscape:document-units="mm"
     inkscape:zoom="1.9300999"
     inkscape:cx="152.32372"
     inkscape:cy="156.98669"
     inkscape:window-width="1920"
     inkscape:window-height="972"
     inkscape:window-x="0"
     inkscape:window-y="40"
     inkscape:window-maximized="1"
     inkscape:current-layer="layer1" />
  <defs
     id="defs1" />
  <g
     inkscape:label="Calque 1"
     inkscape:groupmode="layer"
     id="layer1">
    <path
       d="m 29.16714,10.972385 q 0.5588,0.127 0.508,0.5334 -0.0254,0.4064 -0.4826,0.508 -0.4572,0.1016 -1.1938,0.2032 -0.7366,0.1016 -1.5748,0.1778 -0.8382,0.0762 -1.7272,0.1016 -0.889,0 -1.6764,-0.127 -1.778,-0.254 -2.3876,-1.1176 -0.5842,-0.8636 -0.5334,-1.8287995 0.0762,-0.9652 0.6096,-1.8796 0.5334,-0.9398 1.397,-1.7526 0.8636,-0.8128 1.8796,-1.4224 2.2098,-1.3462 3.8354,-1.2954 0.635,0.1778 0.3556,0.762 -0.3302,0.9144 -0.8382,0.762 -0.3048,-0.1016 -0.381,-0.4064 -1.27,0.2794 -2.921,1.397 -2.5908,1.7526 -2.921,3.5306 -0.1778,0.9397995 0.3302,1.4985995 0.508,0.5588 1.4478,0.7366 0.9398,0.1778 2.032,0.1524 2.032,-0.0508 3.937,-0.4572 z m 1.981187,-2.0573995 q 0.1524,-0.4064 0.3556,-0.9144 0.1524,-0.5334 0.4064,-0.9652 0.5842,-1.143 1.2192,-1.6256 l 0.0762,-0.1524 q 1.3462,-1.1684 2.667,-0.8636 0.6096,0.1524 1.0668,0.5842 0.4572,0.4064 0.6604,0.9906 0.508,1.3716 -0.3556,2.921 -0.5588,1.0414 -1.8796,1.6763995 -0.9652,0.4826 -2.4638,0.6604 -0.8382,0.127 -1.4478,-0.6858 -0.6096,-0.8127995 -0.3048,-1.6255995 z m 4.2672,0.4318 q 0.5842,-0.4064 0.9652,-0.9398 0.381,-0.5588 0.381,-1.4224 0,-0.8636 -0.4572,-1.2954 -0.4572,-0.4318 -1.1176,-0.3302 -0.1016,0.3048 -0.4318,0.381 -0.9652,0.127 -1.7526,1.3462 -0.6858,1.0668 -0.8636,2.0574 -0.0508,0.2032 0.0254,0.4064 0.1016,0.1778 0.1524,0.381 0.1524,0.0508 0.3048,0.1523995 0.1524,0.0762 0.508,0.1016 0.381,0.0254 1.0414,-0.2031995 0.6858,-0.2286 1.2446,-0.635 z m 3.657594,1.8287995 q -0.3302,-0.7874 -0.2794,-1.9049995 0.0762,-1.143 0.127,-1.7018 0.0508,-0.5588 -0.0254,-0.9144 -0.2286,-0.127 -0.254,-0.4064 -0.0508,-0.2794 0.127,-0.4064 0.2032,-0.127 0.2286,-0.127 0.4064,-0.2032 0.7112,0.2032 0.381,0.8382 0.127,2.8956 -0.0508,0.508 -0.0508,0.9144 1.143,-1.7526 2.3876,-3.0988 0.889,-0.9398 1.7526,-0.9906 0.431813,-0.0254 0.863613,-0.1016 0.4572,-0.1016 0.8128,0.1016 1.524,0.9144 1.0922,3.0226 -0.1778,0.9144 -0.6604,1.7271995 -0.8128,1.397 -1.4478,1.524 -0.2286,0.0508 -0.457213,0.1016 -0.2286,0.0762 -0.4064,-0.0254 -0.1524,-0.1016 -0.2032,-0.2794 -0.127,-0.4318 0.3302,-0.6096 0.457213,-0.1778 0.838213,-0.6096 0.4064,-0.4572 0.6604,-1.0159995 0.2794,-0.5842 0.381,-1.1684 0.1016,-0.6096 -0.0254,-1.0668 -0.3048,-1.016 -1.676413,-0.5842 -0.7874,0.2286 -1.3462,0.7874 -0.5588,0.5588 -1.016,1.2446 -0.4572,0.6604 -0.889,1.3715995 -0.4318,0.6858 -0.9652,1.2192 -0.4064,0.2286 -0.7366,-0.1016 z M 49.563308,6.6289855 q -0.4572,0.127 -1.0922,0.3048 -0.508,0.1016 -0.635,-0.3302 -0.127,-0.4318 0.3048,-0.6096 0.4826,-0.1778 1.6256,-0.4572 0.127,-0.9144 0.4318,-1.9304 0.3302,-1.016 0.4826,-1.7526 -0.0508,-0.1016 0.0254,-0.381 0.0762,-0.2794 0.127,-0.4318 0.0762,-0.1524 0.2286,-0.2032 0.1524,-0.0762 0.3302,-0.0508 0.381,0.1016 0.381,0.5334 h 0.0254 l -0.0508,0.1016 q -0.1524,0.9144 -0.4064,1.8034 -0.2286,0.889 -0.4318,1.778 l -0.0762,0.3048 1.6002,-0.3048 q 0.254,-0.0254 0.4064,0.1016 0.1524,0.127 0.1778,0.3048 0.0254,0.1778 -0.1016,0.3556 -0.1016,0.1778 -0.508,0.254 -1.3208,0.254 -1.778,0.3556 -0.2794,1.5494 -0.635,3.048 -0.3302,1.4731995 -1.016,2.9209995 -0.3048,0.4064 -0.6604,0.2032 -0.3556,-0.2032 -0.254,-0.635 0.6096,-1.2954 0.9144,-2.5907995 0.3302,-1.3208 0.5842,-2.6924 z m 4.521226,2.3114 q 0.2032,-0.4064 0.4826,-0.762 0.3048,-0.3556 1.0414,-1.0668 0.762,-0.7112 1.3716,-1.0922 0.635,-0.381 0.9398,-0.4064 0.3048,-0.0254 0.508,0.1016 0.4318,0.2794 0.254,0.8382 0.1778,-0.127 0.3302,-0.2286 0.1524,-0.127 0.381,-0.1524 0.254,-0.0508 0.4318,0.127 0.1778,0.1524 0.127,0.4572 -0.254,0.9398 -0.5334,1.7018 -0.254,0.762 -0.1524,1.2446 0.1016,0.4825995 0.7366,0.6095995 0.635,0.1016 2.2098,-0.254 0.254,-0.0254 0.4064,0.1016 0.1524,0.127 0.1778,0.3048 0.0254,0.1778 -0.1016,0.3556 -0.1016,0.1778 -0.4572,0.2794 -0.9144,0.2286 -1.8288,0.2286 -0.889,0.0254 -1.3716,-0.254 -0.4572,-0.254 -0.6604,-0.6858 -0.3048,-0.6857995 0.0762,-2.1081995 -0.381,0.381 -0.9144,0.9652 -0.5334,0.5842 -0.762,0.8127995 -0.2286,0.2032 -0.4318,0.381 -0.1778,0.1524 -0.635,0.2794 -0.4318,0.127 -0.8636,0.1016 -0.4064,-0.0254 -0.7112,-0.2794 -0.3048,-0.254 -0.2794,-0.7111995 0.0254,-0.4826 0.2286,-0.889 z m 3.4798,-1.5494 q -0.2794,-0.0254 -0.4318,-0.2286 -0.635,0.508 -1.3208,1.1684 -0.6858,0.635 -0.9144,1.4224 1.016,0.2793995 2.3368,-1.5494 0.3556,-0.508 0.7366,-0.9144 -0.1524,0.0508 -0.4064,0.1016 z m 8.178774,-0.3556 q -0.3302,0.1778 -0.6096,0 -1.397,0.5842 -2.2098,1.8288 -0.3048,0.4572 -0.3556,0.9398 0.508,0.6857995 2.3368,0.4825995 0.7366,-0.1016 1.4224,-0.254 0.6858,-0.1777995 0.9906,-0.2285995 0.3048,-0.0508 0.4572,0.0762 0.1524,0.1016 0.2032,0.2539995 0.127,0.381 -0.3048,0.6096 -2.0066,0.508 -2.7686,0.6096 -1.7018,0.2286 -2.7686,-0.4572 -0.9398,-0.6604 -0.4318,-1.9303995 0.4572,-1.1176 1.6764,-2.0828 1.2192,-0.9652 2.1844,-0.9652 0.254,0.0762 0.381,0.2794 0.1016,0.2794 0.0254,0.4572 -0.0508,0.1524 -0.2286,0.381 z m 3.429,-0.4064 q -0.4572,0.127 -1.0922,0.3048 -0.508,0.1016 -0.635,-0.3302 -0.127,-0.4318 0.3048,-0.6096 0.4826,-0.1778 1.6256,-0.4572 0.127,-0.9144 0.4318,-1.9304 0.3302,-1.016 0.4826,-1.7526 -0.0508,-0.1016 0.0254,-0.381 0.0762,-0.2794 0.127,-0.4318 0.0762,-0.1524 0.2286,-0.2032 0.1524,-0.0762 0.3302,-0.0508 0.381,0.1016 0.381,0.5334 h 0.0254 l -0.0508,0.1016 q -0.1524,0.9144 -0.4064,1.8034 -0.2286,0.889 -0.4318,1.778 l -0.0762,0.3048 1.6002,-0.3048 q 0.254,-0.0254 0.4064,0.1016 0.1524,0.127 0.1778,0.3048 0.0254,0.1778 -0.1016,0.3556 -0.1016,0.1778 -0.508,0.254 -1.3208,0.254 -1.778,0.3556 -0.2794,1.5494 -0.635,3.048 -0.3302,1.4731995 -1.016,2.9209995 -0.3048,0.4064 -0.6604,0.2032 -0.3556,-0.2032 -0.254,-0.635 0.6096,-1.2954 0.9144,-2.5907995 0.3302,-1.3208 0.5842,-2.6924 z"
       id="text12"
       style="font-size:96px;font-family:Karumbi;-inkscape-font-specification:Karumbi;opacity:1;mix-blend-mode:normal;fill:#000000;stroke:#000000;stroke-width:0.343958;stroke-opacity:1"
       aria-label="Contact" />
  </g>
</svg>
