<?xml version="1.0" encoding="UTF-8" standalone="no"?>
<!-- Created with Inkscape (http://www.inkscape.org/) -->

<svg
   width="350"
   height="50"
   viewBox="0 0 92.604165 13.229167"
   version="1.1"
   id="svg1"
   inkscape:version="1.3 (0e150ed6c4, 2023-07-21)"
   sodipodi:docname="Menu-lescopainsduparc-inscriptrion.svg"
   xml:space="preserve"
   xmlns:inkscape="http://www.inkscape.org/namespaces/inkscape"
   xmlns:sodipodi="http://sodipodi.sourceforge.net/DTD/sodipodi-0.dtd"
   xmlns="http://www.w3.org/2000/svg"
   xmlns:svg="http://www.w3.org/2000/svg"><sodipodi:namedview
     id="namedview1"
     pagecolor="#ffffff"
     bordercolor="#000000"
     borderopacity="0.25"
     inkscape:showpageshadow="2"
     inkscape:pageopacity="0.0"
     inkscape:pagecheckerboard="0"
     inkscape:deskcolor="#d1d1d1"
     inkscape:document-units="mm"
     inkscape:zoom="1.9300999"
     inkscape:cx="201.02586"
     inkscape:cy="-1.5543237"
     inkscape:window-width="1920"
     inkscape:window-height="972"
     inkscape:window-x="0"
     inkscape:window-y="40"
     inkscape:window-maximized="1"
     inkscape:current-layer="layer1" /><defs
     id="defs1" /><g
     inkscape:label="Calque 1"
     inkscape:groupmode="layer"
     id="layer1"><path
       d="m 16.179943,10.219283 q 0.348643,0.12305 0.348643,0.430676 0,0.307626 -0.369151,0.38966 -0.328135,0 -0.635761,0.04102 -0.287117,0.04102 -0.615252,0.08203 -0.02051,0.08203 -0.102542,0.246101 -0.205084,0.246101 -0.451185,0.184576 -0.225592,-0.06152 -0.287117,-0.307626 -0.307626,0.08203 -0.471693,-0.205084 -0.143559,-0.266609 0.102542,-0.451185 0.2461,-0.184576 0.63576,-0.246101 0.451185,-1.4355878 0.328134,-4.060663 -0.04102,-0.6972856 -0.04102,-1.2920292 h -0.410168 q -0.225593,-0.020508 -0.328135,-0.1640672 -0.08203,-0.1230504 -0.08203,-0.2666092 0.02051,-0.3486428 0.430676,-0.3896596 h 0.08203 q 1.353554,-0.1435588 1.66118,-0.1435588 0.348643,0.1230504 0.348643,0.410168 -0.02051,0.410168 -0.635761,0.4306764 -0.12305,0 -0.2461,0.020508 0,0.5947436 0.02051,1.2715208 0,0.6767772 0.02051,1.3740628 -0.02051,1.5996552 -0.266609,2.6866006 0.307626,-0.04102 0.553727,-0.04102 z m 1.045925,0.307626 Q 16.959258,9.8911486 17.000275,8.988779 17.0618,8.065901 17.102817,7.6147162 17.143834,7.1635314 17.082309,6.8764138 16.897733,6.7738718 16.877225,6.5482794 16.836208,6.322687 16.979767,6.220145 q 0.164067,-0.102542 0.184575,-0.102542 0.328135,-0.1640672 0.574236,0.1640672 0.307626,0.6767772 0.102542,2.3379576 -0.04102,0.410168 -0.04102,0.7383024 0.922878,-1.4150796 1.927789,-2.5020248 0.717794,-0.7588108 1.41508,-0.7998276 0.348643,-0.020508 0.697286,-0.082034 0.369151,-0.082034 0.656268,0.082034 1.230504,0.7383024 0.881862,2.4404996 -0.143559,0.7383024 -0.533219,1.3945712 -0.656269,1.1279624 -1.168979,1.2305044 -0.184575,0.04102 -0.369151,0.08203 -0.184575,0.06153 -0.328134,-0.02051 -0.123051,-0.08203 -0.164067,-0.225593 -0.102542,-0.348642 0.266609,-0.492201 0.369151,-0.143559 0.676777,-0.4922018 Q 22.086358,9.604031 22.291442,9.1528462 22.517035,8.681153 22.599068,8.2094598 22.681102,7.7172582 22.57856,7.348107 22.332459,6.527771 21.225006,6.8764138 20.589245,7.0609894 20.13806,7.5121742 19.686876,7.963359 19.317724,8.5170858 18.948573,9.0503042 18.59993,9.6245394 18.251288,10.178266 17.820611,10.608943 17.492477,10.793518 17.225868,10.526909 Z M 28.218367,6.630313 q 0.287117,0.2461008 0.205084,0.4511848 -0.164068,0.3896596 -0.51271,0.307626 -0.410168,-0.1640672 -0.90237,0 -0.820336,0.2666092 -1.374063,0.5947436 0.38966,0.2461008 0.820336,0.3896596 0.451185,0.1435588 0.820336,0.3691512 0.861353,0.4511848 1.066437,1.230504 -0.04102,0.2461008 -0.143559,0.3691508 -0.881861,0.615252 -2.255924,0.90237 -1.333046,0.287118 -2.440499,0.06153 -0.348643,-0.164067 -0.26661,-0.471693 0.08203,-0.287118 0.430677,-0.328134 1.312537,0.225592 2.994226,-0.287118 Q 27.15193,10.075724 27.439047,9.8706402 27.090405,9.6245394 26.659728,9.4604722 26.229052,9.296405 25.818884,9.1118294 25.429224,8.9067454 25.121598,8.6401362 24.834481,8.373527 24.752447,7.9018338 24.731939,7.6147162 24.937023,7.450649 26.987863,6.1791282 28.218367,6.630313 Z m 4.593865,0.5537268 q -0.26661,0.1435588 -0.492202,0 -1.127962,0.4716932 -1.784231,1.4766048 -0.246101,0.3691512 -0.287117,0.7588108 0.410168,0.5537268 1.886772,0.3896596 0.594744,-0.082034 1.148471,-0.205084 0.553727,-0.1435588 0.799827,-0.1845756 0.246101,-0.041017 0.369152,0.061525 0.12305,0.082034 0.164067,0.205084 0.102542,0.307626 -0.246101,0.4922014 -1.620164,0.410168 -2.235416,0.492202 -1.374062,0.184575 -2.235415,-0.369151 -0.758811,-0.5332188 -0.348643,-1.5586388 0.369151,-0.9023696 1.353554,-1.6816888 0.984404,-0.7793192 1.763723,-0.7793192 0.205084,0.061525 0.307626,0.2255924 0.08203,0.2255924 0.02051,0.3691512 -0.04102,0.1230504 -0.184575,0.307626 z m 1.456079,-0.5742352 q -0.12305,-0.3486428 0.04102,-0.4922016 0.164067,-0.1640672 0.287118,-0.1640672 0.143559,0 0.307626,0.1230504 0.430676,0.5332184 0.410168,1.1894872 -0.02051,0.6562688 -0.06152,1.0459284 -0.02051,0.3896596 -0.04102,0.5332184 0,0.1230504 -0.02051,0.2255924 l -0.06153,0.6767772 Q 35.95,8.5581026 37.201013,7.8403086 q 1.251012,-0.717794 2.80965,-1.3125376 0.369152,-0.041017 0.471694,0.2871176 0.102542,0.307626 -0.246101,0.4922016 -2.153382,0.820336 -3.055752,1.4971132 -0.881861,0.6767772 -1.394571,1.4150796 -0.51271,0.717794 -0.820336,1.722706 -0.102542,0.2461 -0.38966,0.328134 h -0.04102 q -0.369152,-0.06152 -0.430677,-0.430676 0.02051,-0.51271 0.123051,-1.312538 Q 34.329837,9.7270814 34.41187,8.9477622 34.616954,7.0199726 34.268311,6.6098046 Z M 40.830986,6.220145 q 0.184576,-0.3486428 0.492202,-0.2461008 0.328134,0.102542 0.287118,0.4716932 -0.307626,1.1074536 -0.533219,2.2149072 -0.205084,1.0869452 -0.51271,2.1943984 -0.164067,0.38966 -0.51271,0.287118 -0.348643,-0.102542 -0.246101,-0.533218 0.102542,-0.410168 0.205084,-0.8203364 0.123051,-0.4306764 0.225593,-0.8408444 V 8.9272538 Q 40.40031,8.2504766 40.502852,7.5736994 40.625902,6.8764138 40.830986,6.220145 Z m 1.066437,-2.9327012 q 0.348643,0.1230504 0.348643,0.4306764 0,0.307626 -0.369151,0.3896596 h -0.08203 Q 41.569289,4.0872714 41.466747,3.964221 41.384713,3.8411706 41.384713,3.6771034 41.405222,3.3284606 41.81539,3.2874438 Z m 1.907276,4.9425244 -0.12305,0.1435588 q -0.328135,0.1640672 -0.553727,-0.041017 -0.205084,-0.2255924 -0.04102,-0.5537268 0.676777,-0.8613528 1.127962,-1.1074536 0.143559,-0.51271 0.266609,-1.0049116 0.143559,-0.4922016 0.246101,-0.820336 0.102542,-0.3486428 0.184576,-0.8408444 0.06152,-0.4716932 0.2461,-1.0049116 0.38966,-1.333046 0.840845,-1.4766048 0.246101,-0.041017 0.451185,0.205084 l 0.12305,0.307626 q 0.08203,0.2666092 -0.04102,0.4306764 -0.12305,0.1435588 -0.328134,0.1640672 -0.410168,1.2715208 -1.02542,3.7530372 0.430676,-0.020508 0.984403,0 0.574235,0.020508 1.086945,0.3281344 0.51271,0.2871176 0.799828,0.717794 0.287117,0.4306764 0.266609,0.9433864 0,0.51271 -0.471693,0.922878 -0.451185,0.410168 -1.045929,0.615252 -0.594743,0.205084 -1.251012,0.410168 -0.656269,0.184576 -1.558638,0 -0.820336,2.358466 -1.845756,3.876088 -0.225593,0.348642 -0.574236,0.12305 -0.307626,-0.205084 -0.102542,-0.594744 1.353555,-1.968806 2.337958,-5.4962508 z m 1.14847,-1.0049116 Q 44.666052,8.270985 44.255884,9.5425058 45.178762,9.6655562 45.855539,9.4194554 47.065535,8.9682706 47.516719,8.270985 47.311635,7.5942078 46.491299,7.3070902 45.71198,7.0199726 44.953169,7.2250566 Z m 5.55777,-0.3691512 q -0.369151,0.102542 -0.881861,0.2461008 -0.410168,0.082034 -0.51271,-0.2666092 -0.102542,-0.3486428 0.246101,-0.4922016 0.389659,-0.1435588 1.312537,-0.3691512 0.102542,-0.7383024 0.348643,-1.5586384 0.266609,-0.820336 0.38966,-1.4150796 -0.04102,-0.082034 0.02051,-0.307626 0.06153,-0.2255924 0.102542,-0.3486428 0.06153,-0.1230504 0.184576,-0.1640672 0.12305,-0.061525 0.266609,-0.041017 0.307626,0.082034 0.307626,0.4306764 h 0.02051 l -0.04102,0.082034 q -0.12305,0.7383024 -0.328134,1.4560964 -0.184576,0.717794 -0.348643,1.435588 l -0.06153,0.2461008 1.292029,-0.2461008 q 0.205084,-0.020508 0.328134,0.082034 0.123051,0.102542 0.143559,0.2461008 0.02051,0.1435588 -0.08203,0.2871176 -0.08203,0.1435588 -0.410168,0.205084 -1.066437,0.205084 -1.435588,0.2871176 -0.225593,1.2510124 -0.51271,2.461008 -0.266609,1.1894876 -0.820336,2.3584656 -0.246101,0.328135 -0.533219,0.164068 -0.287117,-0.164068 -0.205084,-0.51271 0.492202,-1.045929 0.738303,-2.0918572 0.266609,-1.0664368 0.471693,-2.1738904 z M 55.06382,6.220145 q 0.184576,-0.3486428 0.492202,-0.2461008 0.328134,0.102542 0.287117,0.4716932 -0.307626,1.1074536 -0.533218,2.2149072 -0.205084,1.0869452 -0.51271,2.1943984 -0.164067,0.38966 -0.51271,0.287118 -0.348643,-0.102542 -0.246101,-0.533218 0.102542,-0.410168 0.205084,-0.8203364 0.123051,-0.4306764 0.225593,-0.8408444 V 8.9272538 Q 54.633144,8.2504766 54.735686,7.5736994 54.858736,6.8764138 55.06382,6.220145 Z m 1.066437,-2.9327012 q 0.348643,0.1230504 0.348643,0.4306764 0,0.307626 -0.369151,0.3896596 h -0.08203 Q 55.802123,4.0872714 55.699581,3.964221 55.617547,3.8411706 55.617547,3.6771034 55.638055,3.3284606 56.048223,3.2874438 Z m 0.799824,5.4142176 q 0.12305,-0.3281344 0.287118,-0.7383024 0.12305,-0.4306764 0.328134,-0.7793192 0.471693,-0.922878 0.984403,-1.3125376 l 0.06153,-0.1230504 q 1.086946,-0.9433864 2.153382,-0.6972856 0.492202,0.1230504 0.861353,0.4716932 0.369151,0.3281344 0.533219,0.7998276 0.410168,1.1074536 -0.287118,2.358466 -0.451185,0.8408444 -1.517622,1.353554 -0.779319,0.38966 -1.989314,0.533219 -0.676778,0.102542 -1.168979,-0.553727 Q 56.68398,9.3579302 56.930081,8.7016614 Z m 3.445411,0.3486428 q 0.471693,-0.3281344 0.779319,-0.7588108 0.307626,-0.4511848 0.307626,-1.1484704 0,-0.6972856 -0.369151,-1.0459284 -0.369151,-0.3486428 -0.902369,-0.2666092 -0.08203,0.2461008 -0.348643,0.307626 -0.779319,0.102542 -1.41508,1.0869452 -0.553727,0.8613528 -0.697285,1.6611804 -0.04102,0.1640672 0.02051,0.3281344 0.08203,0.1435588 0.12305,0.307626 0.123051,0.041017 0.246101,0.1230504 0.123051,0.061525 0.410168,0.082034 0.307626,0.020508 0.840845,-0.1640672 0.553726,-0.1845756 1.004911,-0.51271 z m 2.953202,1.4766048 Q 63.062085,9.8911486 63.103101,8.988779 63.164627,8.065901 63.205643,7.6147162 63.24666,7.1635314 63.185135,6.8764138 63.000559,6.7738718 62.980051,6.5482794 62.939034,6.322687 63.082593,6.220145 63.24666,6.117603 63.267169,6.117603 q 0.328134,-0.1640672 0.574235,0.1640672 0.307626,0.6767772 0.102542,2.3379576 -0.04102,0.410168 -0.04102,0.7383024 0.922878,-1.4150796 1.92779,-2.5020248 0.717794,-0.7588108 1.415079,-0.7998276 0.348643,-0.020508 0.697286,-0.082034 0.369151,-0.082034 0.656269,0.082034 1.230504,0.7383024 0.881861,2.4404996 -0.143559,0.7383024 -0.533219,1.3945712 -0.656268,1.1279624 -1.168978,1.2305044 -0.184576,0.04102 -0.369152,0.08203 -0.184575,0.06153 -0.328134,-0.02051 -0.12305,-0.08203 -0.164067,-0.225593 -0.102542,-0.348642 0.266609,-0.492201 0.369151,-0.143559 0.676777,-0.4922018 0.328135,-0.3691512 0.533219,-0.820336 0.225592,-0.4716932 0.307626,-0.9433864 0.08203,-0.4922016 -0.02051,-0.8613528 -0.246101,-0.820336 -1.353554,-0.4716932 -0.635761,0.1845756 -1.086945,0.6357604 -0.451185,0.4511848 -0.820336,1.0049116 -0.369152,0.5332184 -0.717794,1.1074536 -0.348643,0.5537266 -0.77932,0.9844036 -0.328134,0.184575 -0.594743,-0.08203 z"
       id="text4"
       style="font-size:20.5084px;font-family:Karumbi;-inkscape-font-specification:Karumbi;stroke:#060606;stroke-width:0.277718"
       transform="scale(1.147292,0.87161769)"
       aria-label="Inscription" /></g></svg>
